<svg width="56" height="56" viewBox="0 0 56 56" fill="none" xmlns="http://www.w3.org/2000/svg">
<g clip-path="url(#clip0)">
<path d="M30.2725 49.0577L24.6325 53.1865C24.5169 53.2712 24.3723 53.3064 24.2306 53.2845C24.0889 53.2626 23.9618 53.1853 23.8771 53.0696L17.0815 43.7869C16.9969 43.6712 16.9616 43.5266 16.9835 43.3849C17.0054 43.2433 17.0827 43.1161 17.1984 43.0314L22.8384 38.9026C22.954 38.8179 23.0986 38.7827 23.2403 38.8046C23.382 38.8265 23.5091 38.9038 23.5938 39.0195L30.3894 48.3022C30.4741 48.4179 30.5093 48.5625 30.4874 48.7042C30.4655 48.8458 30.3882 48.973 30.2725 49.0577ZM24.4279 51.9965L29.1978 48.5047L23.0408 40.0942L18.2731 43.5844L24.4279 51.9965Z" fill="#C3E5FE"/>
<path d="M40.6396 41.4684L34.9974 45.5988C34.8818 45.6835 34.7372 45.7187 34.5955 45.6968C34.4538 45.6749 34.3267 45.5976 34.242 45.4819L22.1145 28.9157C22.0298 28.8 21.9946 28.6555 22.0165 28.5138C22.0384 28.3721 22.1157 28.2449 22.2314 28.1603L27.8735 24.0299C27.9892 23.9452 28.1338 23.9099 28.2755 23.9318C28.4171 23.9538 28.5443 24.0311 28.629 24.1467L40.7564 40.7129C40.8411 40.8286 40.8764 40.9732 40.8545 41.1149C40.8326 41.2565 40.7553 41.3837 40.6396 41.4684ZM34.795 44.4072L39.5648 40.9154L28.076 25.2215L23.3061 28.7133L34.795 44.4072Z" fill="#C3E5FE"/>
<path d="M51.0033 33.8809L45.3633 38.0097C45.2476 38.0943 45.1031 38.1296 44.9614 38.1077C44.8197 38.0858 44.6925 38.0085 44.6079 37.8928L29.1221 16.7391L27.5519 17.8885C27.4729 17.9464 27.3798 17.9817 27.2823 17.9907C27.1849 17.9997 27.0868 17.9821 26.9986 17.9397C26.9104 17.8974 26.8353 17.8319 26.7814 17.7502C26.7275 17.6685 26.6968 17.5737 26.6925 17.476L26.2232 6.70851C26.2241 6.6212 26.2454 6.53531 26.2853 6.45765C26.3252 6.37998 26.3826 6.3127 26.4531 6.26112C26.5235 6.20955 26.605 6.17511 26.6911 6.16054C26.7772 6.14597 26.8655 6.15168 26.949 6.1772L37.0709 9.87834C37.1628 9.91194 37.2439 9.96987 37.3055 10.0459C37.367 10.122 37.4068 10.2134 37.4205 10.3102C37.4342 10.4071 37.4214 10.5059 37.3833 10.5961C37.3453 10.6863 37.2835 10.7644 37.2045 10.8222L35.6344 11.9717L51.1202 33.1254C51.2048 33.2411 51.2401 33.3857 51.2182 33.5273C51.1963 33.669 51.119 33.7962 51.0033 33.8809ZM45.1613 36.8177L49.9286 33.3278L34.4427 12.1741C34.3581 12.0584 34.3228 11.9139 34.3447 11.7722C34.3666 11.6305 34.4439 11.5033 34.5596 11.4187L35.7503 10.547L27.3396 7.47219L27.7272 16.4204L28.9196 15.5475C29.0353 15.4628 29.1799 15.4275 29.3216 15.4494C29.4632 15.4714 29.5904 15.5487 29.6751 15.6643L45.1613 36.8177Z" fill="#C3E5FE"/>
</g>
<defs>
<clipPath id="clip0">
<rect width="40" height="40" fill="white" transform="translate(0 23.6278) rotate(-36.2064)"/>
</clipPath>
</defs>
</svg>
