<svg width="50" height="50" viewBox="0 0 50 50" fill="none" xmlns="http://www.w3.org/2000/svg">
<g clip-path="url(#clip0)">
<circle cx="32" cy="36" r="6" fill="#24B300"/>
<path d="M34 2.5H16L15 4L16 10H34L35 4L34 2.5Z" fill="#FFD15C"/>
<path d="M31.5298 36.4972L30.4289 35.3071L29.75 36.041L31.1904 37.598C31.2804 37.6953 31.4025 37.75 31.5298 37.75C31.6571 37.75 31.7792 37.6953 31.8693 37.598L34.75 34.4839L34.0711 33.75L31.5298 36.4972Z" fill="white"/>
<path d="M43.75 4.6875H36.2656L36.3297 4.36562C36.3976 4.02566 36.3893 3.67486 36.3053 3.3385C36.2214 3.00214 36.0638 2.6886 35.844 2.42048C35.6243 2.15235 35.3477 1.93632 35.0344 1.78796C34.7211 1.6396 34.3787 1.56259 34.032 1.5625H15.968C15.6214 1.56282 15.2792 1.64 14.9661 1.78846C14.653 1.93693 14.3766 2.15299 14.157 2.42108C13.9374 2.68917 13.78 3.00263 13.6961 3.33888C13.6122 3.67513 13.604 4.02579 13.6719 4.36562L13.7344 4.6875H6.25C6.0428 4.6875 5.84409 4.76981 5.69757 4.91632C5.55106 5.06284 5.46875 5.26155 5.46875 5.46875V47.6562C5.46875 47.8634 5.55106 48.0622 5.69757 48.2087C5.84409 48.3552 6.0428 48.4375 6.25 48.4375H43.75C43.9572 48.4375 44.1559 48.3552 44.3024 48.2087C44.4489 48.0622 44.5312 47.8634 44.5312 47.6562V5.46875C44.5312 5.26155 44.4489 5.06284 44.3024 4.91632C44.1559 4.76981 43.9572 4.6875 43.75 4.6875ZM14.6094 9.05313C14.7165 9.58377 15.0036 10.0611 15.4221 10.4045C15.8406 10.7479 16.3649 10.9361 16.9062 10.9375H33.0938C33.6351 10.9361 34.1594 10.7479 34.5779 10.4045C34.9964 10.0611 35.2835 9.58377 35.3906 9.05313L35.4844 8.59375H40.625V44.5312H9.375V8.59375H14.5156L14.6094 9.05313ZM15.3664 3.41094C15.4392 3.3216 15.5309 3.24958 15.6349 3.20012C15.739 3.15066 15.8528 3.125 15.968 3.125H34.032C34.1479 3.12498 34.2623 3.15072 34.367 3.20038C34.4717 3.25003 34.564 3.32234 34.6373 3.41208C34.7106 3.50182 34.763 3.60674 34.7907 3.71923C34.8185 3.83172 34.8208 3.94898 34.7977 4.0625L33.8602 8.75C33.8241 8.92659 33.7281 9.08529 33.5884 9.1992C33.4488 9.31311 33.274 9.37522 33.0938 9.375H16.9062C16.726 9.37522 16.5512 9.31311 16.4116 9.1992C16.2719 9.08529 16.1759 8.92659 16.1398 8.75L15.2023 4.0625C15.1793 3.94865 15.1819 3.83108 15.21 3.71837C15.2381 3.60566 15.291 3.50063 15.3648 3.41094H15.3664ZM42.9688 46.875H7.03125V6.25H14.0469L14.2031 7.03125H8.59375C8.38655 7.03125 8.18784 7.11356 8.04132 7.26007C7.89481 7.40659 7.8125 7.6053 7.8125 7.8125V45.3125C7.8125 45.5197 7.89481 45.7184 8.04132 45.8649C8.18784 46.0114 8.38655 46.0938 8.59375 46.0938H41.4062C41.6134 46.0938 41.8122 46.0114 41.9587 45.8649C42.1052 45.7184 42.1875 45.5197 42.1875 45.3125V7.8125C42.1875 7.6053 42.1052 7.40659 41.9587 7.26007C41.8122 7.11356 41.6134 7.03125 41.4062 7.03125H35.7969L35.9531 6.25H42.9688V46.875Z" fill="#525D7D"/>
<path d="M12.5 15.625H37.5V17.1875H12.5V15.625Z" fill="#525D7D"/>
<path d="M12.5 21.0938H34.0281V22.6562H12.5V21.0938Z" fill="#525D7D"/>
<path d="M12.5 26.5625H24.3055V28.125H12.5V26.5625Z" fill="#525D7D"/>
<path d="M32.0313 28.9062C30.6406 28.9062 29.2812 29.3186 28.1249 30.0912C26.9686 30.8638 26.0674 31.962 25.5352 33.2468C25.003 34.5316 24.8638 35.9453 25.1351 37.3092C25.4064 38.6732 26.0761 39.926 27.0594 40.9093C28.0427 41.8927 29.2956 42.5623 30.6595 42.8336C32.0235 43.105 33.4372 42.9657 34.722 42.4335C36.0068 41.9013 37.1049 41.0001 37.8775 39.8439C38.6501 38.6876 39.0625 37.3282 39.0625 35.9375C39.0602 34.0734 38.3187 32.2863 37.0006 30.9682C35.6825 29.65 33.8954 28.9085 32.0313 28.9062ZM32.0313 41.4063C30.9496 41.4063 29.8923 41.0855 28.993 40.4846C28.0936 39.8837 27.3927 39.0296 26.9788 38.0303C26.5649 37.031 26.4566 35.9314 26.6676 34.8706C26.8786 33.8098 27.3994 32.8353 28.1643 32.0705C28.9291 31.3057 29.9035 30.7848 30.9644 30.5738C32.0252 30.3628 33.1248 30.4711 34.1241 30.885C35.1233 31.299 35.9774 31.9999 36.5784 32.8992C37.1793 33.7986 37.5 34.8559 37.5 35.9375C37.4984 37.3874 36.9216 38.7774 35.8964 39.8027C34.8712 40.8279 33.4811 41.4046 32.0313 41.4063Z" fill="#525D7D"/>
<g clip-path="url(#clip1)">
</g>
</g>
<defs>
<clipPath id="clip0">
<rect width="50" height="50" fill="white"/>
</clipPath>
<clipPath id="clip1">
<rect width="289" height="371" fill="white" transform="translate(42 1)"/>
</clipPath>
</defs>
</svg>
