<svg width="199" height="269" viewBox="0 0 199 269" fill="none" xmlns="http://www.w3.org/2000/svg">
<g clip-path="url(#clip0)">
<path d="M98.1156 237.272C102.078 241.824 106.146 246.816 110.563 252.539L111.253 253.441C111.407 253.189 111.553 252.937 111.683 252.669C111.529 252.465 111.358 252.254 111.204 252.043C106.779 246.312 102.695 241.304 98.7246 236.736L98.1156 237.272Z" fill="#C3E5FE"/>
<path d="M130.098 77.9906H112.284V78.8035H130.098V77.9906Z" fill="#C3E5FE"/>
<path d="M117.472 244.247C116.084 244.206 114.687 244.174 113.307 244.174C112.065 244.174 110.936 244.174 109.864 244.247V245.06H110.205C111.172 245.011 112.187 244.995 113.291 244.995C114.549 244.995 115.824 244.995 117.099 245.052C117.245 244.783 117.367 244.515 117.472 244.247Z" fill="#C3E5FE"/>
<path d="M102.549 77.7386C102.419 78.0149 102.297 78.2995 102.175 78.5515L102.451 78.9091C103.653 80.4699 104.83 82.0551 106 83.6322C107.169 85.2092 108.354 86.8025 109.564 88.3714C111.559 90.9951 113.692 93.5105 115.954 95.9071L116.539 95.3462C114.298 92.971 112.187 90.4772 110.214 87.8755C109.004 86.3066 107.826 84.7296 106.657 83.1444C105.488 81.5592 104.303 79.9741 103.093 78.4133L102.549 77.7386Z" fill="#C3E5FE"/>
<path d="M104.92 73.7147C104.798 73.8935 104.684 74.0723 104.571 74.2512C106.503 76.6411 108.492 79.1286 110.563 81.8275C113.989 86.2741 117.659 91.2003 122.117 97.3378L122.766 96.8582C118.309 90.7207 114.647 85.7864 111.204 81.3316C109.077 78.584 107.039 75.9989 105.05 73.5521L104.92 73.7147Z" fill="#C3E5FE"/>
<path d="M100.568 83.4289L102.013 85.4287C103.458 87.4366 104.952 89.4932 106.487 91.5092C108.021 93.5253 109.402 95.143 110.758 96.6062L111.35 96.0534C110.011 94.6064 108.63 92.9562 107.128 91.0134C105.626 89.0705 104.116 86.9488 102.671 84.9491L100.836 82.4128C100.738 82.7461 100.657 83.0794 100.568 83.4289Z" fill="#C3E5FE"/>
<path d="M98.8301 95.4437C99.2524 95.9234 99.6421 96.4111 100.048 96.9151C100.454 97.4191 100.738 97.8337 101.031 98.2889L101.713 97.8418C101.404 97.3703 101.071 96.907 100.698 96.4192C100.137 95.6957 99.5365 95.0048 98.9357 94.3219C98.9032 94.6959 98.8626 95.0698 98.8301 95.4437Z" fill="#C3E5FE"/>
<path d="M96.1507 37.3207C97.3361 38.5644 98.5378 39.9139 99.8126 41.4503C100.089 41.3771 100.361 41.2847 100.625 41.1739C99.2686 39.5481 97.9857 38.0767 96.7191 36.7598L96.1507 37.3207Z" fill="#C3E5FE"/>
<path d="M105.626 96.6956L99.5365 88.8104L99.3904 89.9485L104.977 97.1915L105.626 96.6956Z" fill="#C3E5FE"/>
<path d="M37.1303 240.41C36.589 240.676 36.0477 240.946 35.5064 241.223C36.2128 241.223 36.9436 241.223 37.7068 241.223C39.4849 241.223 41.2631 241.223 43.0413 241.288C44.8194 241.353 46.6057 241.353 48.392 241.353C49.4719 241.353 50.3082 241.402 51.1201 241.45C52.6178 241.575 54.1237 241.558 55.6183 241.402L55.529 240.589C54.0803 240.741 52.6206 240.758 51.1689 240.638C50.3569 240.597 49.4962 240.54 48.392 240.54C46.6138 240.54 44.8357 240.54 43.0575 240.475C41.2793 240.41 39.4931 240.41 37.7068 240.41H37.1303Z" fill="#C3E5FE"/>
<path d="M45.2417 184.823C47.0672 184.63 48.9048 184.575 50.7386 184.661L50.8035 183.848C48.9265 183.762 47.0457 183.816 45.1767 184.01C43.8695 184.124 42.5135 184.238 41.1901 184.238C39.9509 184.25 38.7143 184.121 37.5038 183.856L37.3252 184.669C38.5932 184.955 39.8903 185.092 41.1901 185.075C42.546 185.051 43.9182 184.937 45.2417 184.823Z" fill="#C3E5FE"/>
<path d="M31.9095 244.247V245.06H32.2505C33.2167 245.011 34.2317 244.995 35.3359 244.995C37.5606 244.995 39.8584 245.068 42.0751 245.149C44.2917 245.23 46.622 245.304 48.8873 245.304C51.1526 245.304 53.1013 245.222 54.8957 245.06L54.8226 244.247C53.0526 244.409 51.112 244.483 48.8873 244.483C46.6626 244.483 44.3323 244.401 42.1075 244.328C39.8828 244.255 37.5769 244.174 35.3359 244.174C34.118 244.174 32.9894 244.198 31.9095 244.247Z" fill="#C3E5FE"/>
<path d="M48.5544 187.945H50.1783V187.132H48.5544C45.7671 187.038 42.9766 187.12 40.1995 187.376L40.3131 188.189C43.0527 187.94 45.8049 187.859 48.5544 187.945Z" fill="#C3E5FE"/>
<path d="M43.3742 191.375C43.6421 191.375 43.8938 191.375 44.1861 191.375C45.2011 191.375 48.1647 191.416 49.0578 191.375L49.0172 190.562C48.1647 190.603 45.2336 190.562 44.2267 190.562C43.9426 190.562 43.6746 190.562 43.4148 190.562C43.155 190.562 42.6028 190.611 42.0264 190.562V191.375H42.4973C42.7652 191.408 43.0819 191.391 43.3742 191.375Z" fill="#C3E5FE"/>
<path d="M48.5544 256.229H50.1783V255.416H48.5544C45.7671 255.323 42.9766 255.404 40.1995 255.66L40.3131 256.473C43.0527 256.224 45.8049 256.143 48.5544 256.229Z" fill="#C3E5FE"/>
<path d="M52.1513 248.702H34.3372V249.515H52.1513V248.702Z" fill="#C3E5FE"/>
<path d="M51.9483 261.985L51.4693 262.643C53.6453 264.269 55.4722 266.618 57.088 268.707L57.7294 268.211C56.0812 266.082 54.2218 263.659 51.9483 261.985Z" fill="#C3E5FE"/>
<path d="M41.1901 252.522C39.9509 252.534 38.7143 252.406 37.5038 252.14L37.3252 252.953C38.5932 253.24 39.8903 253.376 41.1901 253.36C42.546 253.36 43.9182 253.246 45.2498 253.132C47.0753 252.938 48.9129 252.884 50.7467 252.969L50.8116 252.157C48.9346 252.071 47.0538 252.125 45.1848 252.319C43.8695 252.409 42.5135 252.522 41.1901 252.522Z" fill="#C3E5FE"/>
<path d="M28.954 254.173C28.8113 254.435 28.6866 254.706 28.5805 254.985C29.5954 256.351 30.6104 257.717 31.6497 259.05C33.0219 260.822 34.2723 262.367 35.4821 263.765C35.795 263.736 36.1048 263.678 36.4077 263.594C35.1167 262.115 33.7688 260.464 32.2911 258.554C31.1625 257.14 30.0582 255.66 28.954 254.173Z" fill="#C3E5FE"/>
<path d="M40.8409 262.082C38.0965 258.359 35.6363 255.083 33.2898 252.043C31.628 249.875 30.0041 247.816 28.4181 245.865L27.7848 246.377C29.36 248.339 30.9839 250.392 32.6565 252.539C34.9624 255.53 37.382 258.749 40.0695 262.391L40.8409 262.082Z" fill="#C3E5FE"/>
<path d="M32.2749 176.767C33.2411 176.718 34.256 176.702 35.3603 176.702C37.585 176.702 39.8828 176.775 42.0994 176.857C44.316 176.938 46.6463 177.011 48.9117 177.011C51.177 177.011 53.1257 176.93 54.9201 176.767L54.847 175.954C53.0769 176.117 51.1364 176.19 48.9117 176.19C46.6869 176.19 44.3566 176.109 42.1319 176.036C39.9072 175.962 37.6012 175.881 35.3603 175.881C34.118 175.881 32.9894 175.881 31.9176 175.954V176.767H32.2749Z" fill="#C3E5FE"/>
<path d="M54.1568 237.256C53.9121 236.96 53.6402 236.688 53.3449 236.443H53.1094C50.9415 236.362 49.2364 236.297 46.7356 236.272L44.722 237.085C48.4083 237.085 50.4057 237.166 53.077 237.264L54.1568 237.256Z" fill="#C3E5FE"/>
<path d="M52.1513 180.417H34.3372V181.23H52.1513V180.417Z" fill="#C3E5FE"/>
<path d="M43.0575 172.995C44.8438 172.995 46.622 173.06 48.4083 173.06C49.4881 173.06 50.3244 173.109 51.1364 173.158C52.634 173.282 54.14 173.266 55.6346 173.109L55.5453 172.296C54.0966 172.449 52.6368 172.465 51.1851 172.345C50.3732 172.304 49.5125 172.247 48.4083 172.247C46.6301 172.247 44.8519 172.247 43.0738 172.182C41.2956 172.117 39.5093 172.117 37.723 172.117C34.7406 172.092 31.7589 172.23 28.7916 172.532L28.8809 173.345C31.8135 173.051 34.7597 172.915 37.7068 172.938C39.5012 172.93 41.2794 172.963 43.0575 172.995Z" fill="#C3E5FE"/>
<path d="M14.9155 194.879L14.7043 194.635L13.0805 192.757L12.4634 193.294L14.0386 195.082C14.3227 195.025 14.6232 194.96 14.9155 194.879Z" fill="#C3E5FE"/>
<path d="M28.5399 193.936L29.3518 194.944C29.7578 195.041 30.1638 195.123 30.586 195.18C30.1313 194.619 29.6766 194.05 29.2057 193.44C27.6792 191.465 26.1934 189.375 24.7481 187.376C23.3028 185.376 21.8251 183.311 20.3068 181.336C19.4948 180.247 18.6829 179.271 17.8709 178.369L17.2457 178.881L17.4731 179.182C18.1713 179.995 18.8696 180.864 19.6247 181.832C21.135 183.791 22.6127 185.856 24.0498 187.855C25.487 189.855 27.0378 191.944 28.5399 193.936Z" fill="#C3E5FE"/>
<path d="M22.4097 192.294L15.6218 183.498L14.9804 184.002L21.476 192.375L22.4097 192.294Z" fill="#C3E5FE"/>
<path d="M17.4 193.952C17.6436 193.822 17.879 193.684 18.1145 193.546C17.7085 193.074 17.3026 192.595 16.921 192.107C16.109 191.026 15.0535 189.806 14.071 188.75L13.4783 189.302C14.4445 190.343 15.4676 191.546 16.2795 192.603C16.6368 193.058 17.0184 193.505 17.4 193.952Z" fill="#C3E5FE"/>
<path d="M45.1767 161.403C45.7532 161.403 46.2566 161.403 46.7275 161.403C47.1927 161.379 47.6589 161.379 48.1241 161.403L48.1809 160.59C47.6613 160.59 47.1903 160.59 46.7032 160.59C46.216 160.59 45.7532 160.59 45.193 160.59C44.6523 160.552 44.1097 160.552 43.5691 160.59L43.6584 161.403C44.164 161.373 44.6711 161.373 45.1767 161.403Z" fill="#C3E5FE"/>
<path d="M49.001 157.2L48.9604 156.388C48.1078 156.428 45.1767 156.388 44.1699 156.388C43.8857 156.388 43.6178 156.388 43.3579 156.388C43.0981 156.388 42.546 156.436 41.9695 156.388V157.2H42.4404C42.8302 157.2 43.1468 157.2 43.4391 157.2C43.7314 157.2 43.9588 157.2 44.2511 157.2C45.1686 157.225 48.1484 157.249 49.001 157.2Z" fill="#C3E5FE"/>
<path d="M126.095 92.2896C125.576 92.2896 125.113 92.2896 124.618 92.2896C124.122 92.2896 123.668 92.2896 123.107 92.2896C122.567 92.2509 122.024 92.2509 121.483 92.2896L121.573 93.1026C122.065 93.0735 122.558 93.0735 123.051 93.1026C123.627 93.1026 124.13 93.1026 124.601 93.1026C125.067 93.0782 125.533 93.0782 125.998 93.1026L126.095 92.2896Z" fill="#C3E5FE"/>
<path d="M126.859 73.7716C124.609 73.7716 122.304 73.6903 120.079 73.6171C117.854 73.5439 115.548 73.4627 113.307 73.4627C112.065 73.4627 110.936 73.4627 109.864 73.5358V74.3487H110.205C111.172 74.2999 112.187 74.2837 113.291 74.2837C115.516 74.2837 117.813 74.3569 120.03 74.4381C122.247 74.5194 124.577 74.5926 126.842 74.5926C129.108 74.5926 131.056 74.5113 132.851 74.3487L132.778 73.5358C131.024 73.6984 129.083 73.7716 126.859 73.7716Z" fill="#C3E5FE"/>
<path d="M126.907 88.1113C126.055 88.1519 123.124 88.1113 122.117 88.1113C121.833 88.1113 121.565 88.1113 121.305 88.1113C121.045 88.1113 120.493 88.1601 119.916 88.1113V88.9242H120.387C120.777 88.9242 121.094 88.9242 121.386 88.9242C121.678 88.9242 121.906 88.9242 122.198 88.9242C123.213 88.9242 126.185 88.9648 127.07 88.9242L126.907 88.1113Z" fill="#C3E5FE"/>
<path d="M128.685 82.2665L128.75 81.4536C126.873 81.3677 124.993 81.4221 123.124 81.6161C121.816 81.73 120.46 81.8438 119.145 81.8438C117.903 81.8559 116.664 81.7278 115.451 81.4617L115.272 82.2746C116.543 82.5614 117.843 82.6978 119.145 82.681C120.493 82.681 121.865 82.5672 123.205 82.4534C125.024 82.2525 126.856 82.19 128.685 82.2665Z" fill="#C3E5FE"/>
<path d="M128.125 84.7052H126.501C123.714 84.6116 120.924 84.693 118.146 84.9491L118.26 85.762C121 85.5134 123.752 85.4319 126.501 85.5181H128.125V84.7052Z" fill="#C3E5FE"/>
<path d="M129.7 97.8743L130.342 97.3785C129.911 96.8257 129.619 96.3867 129.351 96.0046C128.897 95.2689 128.352 94.5942 127.727 93.9967L127.175 94.5902C127.764 95.1479 128.282 95.7759 128.718 96.4599C128.953 96.8989 129.262 97.3053 129.7 97.8743Z" fill="#C3E5FE"/>
<path d="M26.4289 168.435L26.4776 169.248C31.9095 168.931 37.7312 168.776 44.2511 168.776C48.2459 168.776 50.2757 168.849 53.077 168.955C54.3517 169.004 55.7726 169.061 57.5995 169.11V168.297C55.7726 168.248 54.3517 168.191 53.0851 168.142C50.2676 168.037 48.2134 167.963 44.2267 167.963C37.7149 167.939 31.9095 168.093 26.4289 168.435Z" fill="#C3E5FE"/>
<path d="M43.3742 259.66C43.6421 259.66 43.8938 259.66 44.1861 259.66C45.2011 259.66 48.1647 259.7 49.0578 259.66L49.0172 258.847C48.1647 258.887 45.2336 258.847 44.2267 258.847C43.9426 258.847 43.6746 258.847 43.4148 258.847C43.155 258.847 42.6028 258.896 42.0264 258.847V259.66H42.4973C42.7652 259.692 43.0819 259.676 43.3742 259.66Z" fill="#C3E5FE"/>
<path d="M49.1958 162.875C49.7821 163.435 50.3 164.062 50.7385 164.744C51.0065 165.143 51.315 165.557 51.7535 166.159L52.3949 165.663C51.9646 165.11 51.6723 164.671 51.4043 164.289C50.9479 163.555 50.4024 162.881 49.7804 162.281L49.1958 162.875Z" fill="#C3E5FE"/>
<path d="M130.74 86.5099L130.098 87.0057C130.74 87.8186 132.396 89.7534 134.077 91.6881C133.89 91.0459 133.695 90.4037 133.492 89.7696C132.274 88.3714 131.219 87.1439 130.74 86.5099Z" fill="#C3E5FE"/>
<path d="M61.6267 269L62.3006 268.553C62.0002 268.09 61.6592 267.618 61.2857 267.13C60.9122 266.643 59.467 264.992 57.8431 263.123C55.8376 260.822 53.5641 258.245 52.7928 257.221L52.1513 257.717C52.9633 258.733 55.2205 261.351 57.2341 263.659C58.7849 265.439 60.2464 267.114 60.6443 267.626C61.0421 268.138 61.3263 268.553 61.6267 269Z" fill="#C3E5FE"/>
<path d="M95.4362 110.897C96.1345 111.71 96.8409 112.58 97.5879 113.547C99.0981 115.506 100.576 117.612 102.013 119.571C103.45 121.53 104.952 123.635 106.487 125.651C108.021 127.667 109.402 129.285 110.758 130.748L111.35 130.196C110.011 128.749 108.63 127.098 107.128 125.156C105.626 123.213 104.116 121.091 102.671 119.091C101.225 117.092 99.7476 115.027 98.2293 113.051C97.4174 111.962 96.6054 110.987 95.7935 110.084L95.1683 110.596L95.4362 110.897Z" fill="#C3E5FE"/>
<path d="M93.5696 115.222L92.927 115.719L104.977 131.34L105.62 130.843L93.5696 115.222Z" fill="#C3E5FE"/>
<path d="M96.4592 236.557C94.6405 236.508 93.2114 236.451 91.9448 236.402C90.0205 236.329 88.4616 236.272 86.3911 236.24C85.9445 236.508 85.5061 236.768 85.0676 237.053C87.8364 237.053 89.6145 237.142 91.9123 237.223C93.1871 237.272 94.608 237.329 96.4349 237.378L96.4592 236.557Z" fill="#C3E5FE"/>
<path d="M94.3807 240.581C92.932 240.733 91.4723 240.75 90.0205 240.629C89.2086 240.589 88.3479 240.532 87.2518 240.532C85.4655 240.532 83.6874 240.532 81.9092 240.467C80.131 240.402 78.3447 240.402 76.5585 240.402C73.576 240.377 70.5944 240.515 67.627 240.816L67.7164 241.629C70.6489 241.335 73.5951 241.2 76.5422 241.223C78.3285 241.223 80.1067 241.223 81.8767 241.288C83.6467 241.353 85.4493 241.353 87.2356 241.353C88.3073 241.353 89.1436 241.402 89.9556 241.451C91.4532 241.575 92.9592 241.558 94.4538 241.402L94.3807 240.581Z" fill="#C3E5FE"/>
<path d="M82.2502 157.233C82.5181 157.233 82.7698 157.233 83.0621 157.233H83.3707L84.0852 156.42H83.0784C82.7942 156.42 82.5262 156.42 82.2664 156.42C82.0066 156.42 81.4545 156.469 80.878 156.42V157.233H81.3408C81.6006 157.266 81.9173 157.249 82.2502 157.233Z" fill="#C3E5FE"/>
<path d="M86.6022 153.803L87.2193 153.201L87.4466 152.998H87.3979C84.6106 152.904 81.8202 152.986 79.043 153.242L79.1567 154.055C81.6307 153.813 84.1176 153.729 86.6022 153.803Z" fill="#C3E5FE"/>
<path d="M45.1767 263.83C45.7532 263.83 46.2566 263.83 46.7275 263.83C47.1927 263.806 47.6589 263.806 48.1241 263.83L48.1809 263.017C47.6612 263.017 47.1903 263.017 46.7031 263.017C46.216 263.017 45.7532 263.017 45.1929 263.017C44.6792 262.984 44.1639 262.984 43.6502 263.017C43.7801 263.285 43.9101 263.554 44.0481 263.83C44.4135 263.822 44.7951 263.822 45.1767 263.83Z" fill="#C3E5FE"/>
<path d="M84.0771 150.681C85.8981 150.499 87.7302 150.456 89.5577 150.551L89.6145 149.738C87.7375 149.652 85.8567 149.707 83.9878 149.901C82.6805 150.014 81.3246 150.128 80.0092 150.128C78.77 150.14 77.5334 150.012 76.323 149.746L76.1362 150.559C77.407 150.845 78.7068 150.981 80.0092 150.965C81.3895 150.909 82.7536 150.795 84.0771 150.681Z" fill="#C3E5FE"/>
<path d="M112.885 138.008C110.628 138.065 108.63 138.187 106.755 138.39L106.844 139.203C108.63 139.016 110.538 138.894 112.69 138.837C112.763 138.56 112.82 138.284 112.885 138.008Z" fill="#C3E5FE"/>
<path d="M108.833 146.576C105.309 142.089 101.98 138.048 98.7246 134.309L98.1156 134.845C101.363 138.601 104.733 142.666 108.281 147.194C108.468 146.99 108.655 146.795 108.833 146.576Z" fill="#C3E5FE"/>
<path d="M111.35 232.655C110.495 231.739 109.618 230.723 108.72 229.606C108.346 229.606 107.965 229.533 107.591 229.509C108.687 230.891 109.735 232.11 110.758 233.208L111.35 232.655Z" fill="#C3E5FE"/>
<path d="M116.571 129.513C114.331 127.138 112.22 124.644 110.246 122.042C109.036 120.473 107.859 118.896 106.69 117.311C105.521 115.726 104.335 114.141 103.125 112.58C101.132 109.955 98.9994 107.439 96.7353 105.044L96.1507 105.605C98.3938 107.98 100.508 110.474 102.484 113.076C103.686 114.637 104.863 116.222 106.032 117.799C107.201 119.376 108.387 120.969 109.597 122.538C111.591 125.162 113.724 127.677 115.987 130.074L116.571 129.513Z" fill="#C3E5FE"/>
<path d="M113.543 133.894C110.344 133.976 107.307 134.098 104.376 134.276L104.424 135.089C107.315 134.919 110.311 134.797 113.47 134.724L113.543 133.894Z" fill="#C3E5FE"/>
<path d="M105.626 233.264L102.995 229.858L102.11 230.037L104.977 233.76L105.626 233.264Z" fill="#C3E5FE"/>
<path d="M95.2413 144.739L95.4687 145.039C96.167 145.852 96.8733 146.722 97.6203 147.689C98.5054 148.844 99.3823 150.031 100.251 151.226C100.56 151.226 100.86 151.161 101.169 151.112C100.21 149.795 99.2442 148.47 98.2618 147.194C97.4498 146.104 96.6379 145.129 95.8259 144.226L95.2413 144.739Z" fill="#C3E5FE"/>
<path d="M102.484 147.218C103.19 148.128 103.88 149.055 104.571 149.982C104.814 149.86 105.05 149.722 105.285 149.584C104.571 148.624 103.856 147.665 103.125 146.722C101.133 144.097 98.9994 141.581 96.7353 139.186L96.1507 139.747C98.3938 142.122 100.508 144.616 102.484 147.218Z" fill="#C3E5FE"/>
<path d="M98.8707 230.818L98.0101 231.078C98.7083 231.891 99.4147 232.655 100.048 233.516C100.413 233.988 100.738 234.435 101.031 234.89L101.713 234.443C101.404 233.972 101.071 233.508 100.698 233.021C100.113 232.24 99.4959 231.525 98.8707 230.818Z" fill="#C3E5FE"/>
<path d="M107.932 256.912C108.159 256.758 108.379 256.595 108.59 256.432C107.948 255.579 107.315 254.733 106.69 253.88C105.512 252.295 104.335 250.71 103.125 249.149C101.132 246.523 98.9994 244.008 96.7353 241.613L96.1507 242.174C98.3938 244.549 100.508 247.043 102.484 249.645C103.686 251.205 104.863 252.791 106.032 254.368L107.932 256.912Z" fill="#C3E5FE"/>
<path d="M95.4524 247.458C96.1345 248.271 96.8409 249.149 97.5879 250.116C99.0981 252.075 100.576 254.14 102.013 256.14C102.882 257.343 103.767 258.579 104.668 259.798L105.261 259.229C104.384 258.042 103.515 256.839 102.671 255.66C101.234 253.66 99.7476 251.596 98.2293 249.62C97.4174 248.531 96.6054 247.555 95.7935 246.653L95.1683 247.165C95.2556 247.27 95.3506 247.368 95.4524 247.458Z" fill="#C3E5FE"/>
<path d="M96.4998 234.565L97.1413 234.069C96.646 233.427 96.0451 232.704 95.4037 231.948L94.5918 232.248C95.3063 233.078 95.964 233.874 96.4998 234.565Z" fill="#C3E5FE"/>
<path d="M77.7114 168.793C77.752 168.516 77.8007 168.248 77.8494 167.98C73.3756 168.045 69.2184 168.191 65.2643 168.427L65.313 169.24C69.2103 168.996 73.3188 168.849 77.7114 168.793Z" fill="#C3E5FE"/>
<path d="M53.9376 150.396L65.5728 165.476L66.2142 164.98L54.5791 149.909L53.9376 150.396Z" fill="#C3E5FE"/>
<path d="M89.0218 255.416H87.398C84.6106 255.323 81.8202 255.404 79.043 255.66L79.1567 256.473C81.8938 256.228 84.6432 256.149 87.3898 256.237H89.0137L89.0218 255.416Z" fill="#C3E5FE"/>
<path d="M86.9676 263.814L87.0163 263.001C86.4967 263.001 86.0339 263.001 85.5386 263.001C85.0433 263.001 84.5886 263.001 84.0284 263.001C83.5012 262.964 82.9722 262.964 82.4451 263.001L82.5344 263.814C83.0265 263.785 83.52 263.785 84.0121 263.814C84.5886 263.814 85.092 263.814 85.5629 263.814C86.0308 263.789 86.4997 263.789 86.9676 263.814Z" fill="#C3E5FE"/>
<path d="M87.7958 258.822C86.9838 258.863 84.0202 258.822 83.0053 258.822C82.7211 258.822 82.4532 258.822 82.1934 258.822C81.9335 258.822 81.3814 258.871 80.8049 258.822V259.635H81.2677C81.6575 259.635 81.9741 259.635 82.2664 259.635C82.5587 259.635 82.7861 259.635 83.0784 259.635C84.1014 259.635 87.065 259.676 87.9501 259.635L87.7958 258.822Z" fill="#C3E5FE"/>
<path d="M89.5577 252.978L89.6145 252.165C87.7375 252.079 85.8567 252.133 83.9878 252.327C82.6805 252.441 81.3246 252.555 80.0092 252.555C78.77 252.567 77.5334 252.439 76.323 252.173L76.1362 252.986C77.407 253.272 78.7068 253.408 80.0092 253.392C81.3652 253.392 82.7292 253.278 84.069 253.165C85.8912 252.963 87.726 252.901 89.5577 252.978Z" fill="#C3E5FE"/>
<path d="M52.3949 268.09C51.9646 267.537 51.6723 267.098 51.4043 266.716C50.9479 265.982 50.4025 265.307 49.7804 264.708L49.2283 265.301C49.8146 265.861 50.3325 266.489 50.771 267.171C51.039 267.569 51.3475 267.984 51.786 268.585L52.3949 268.09Z" fill="#C3E5FE"/>
<path d="M54.1608 251.792L53.5182 252.289L65.5685 267.91L66.2111 267.413L54.1608 251.792Z" fill="#C3E5FE"/>
<path d="M56.7388 173.89C58.9842 176.262 61.0985 178.756 63.072 181.36L64.4767 183.214C64.8258 183.214 65.1831 183.254 65.5241 183.254C64.9314 182.441 64.3224 181.628 63.7134 180.864C61.7235 178.231 59.5903 175.71 57.3234 173.312L56.7388 173.89Z" fill="#C3E5FE"/>
<path d="M58.7037 168.988C62.2357 173.052 65.8489 177.458 69.7219 182.409C69.9817 182.311 70.2334 182.198 70.4851 182.084C66.5634 177.044 62.8934 172.564 59.3127 168.451L58.7037 168.988Z" fill="#C3E5FE"/>
<path d="M55.797 178.881L56.0243 179.182C56.4384 179.645 56.8363 180.149 57.2585 180.669H57.3721H57.4939C57.8484 180.743 58.1982 180.838 58.5414 180.954C57.8106 180.011 57.1042 179.141 56.4303 178.336L55.797 178.881Z" fill="#C3E5FE"/>
<path d="M91.0111 261.042L90.4021 261.578C90.8731 262.131 91.4414 262.773 92.026 263.456C93.5687 265.212 95.3225 267.212 96.4836 268.707L97.1251 268.211C95.9477 266.691 94.1939 264.692 92.635 262.919L91.0111 261.042Z" fill="#C3E5FE"/>
<path d="M56.0243 247.466C56.7226 248.279 57.429 249.149 58.176 250.116C59.6862 252.075 61.1639 254.14 62.6011 256.14C64.0382 258.14 65.5403 260.204 67.0749 262.22C68.6095 264.236 69.9898 265.854 71.3458 267.317L71.9466 266.765C70.6069 265.326 69.2185 263.667 67.7164 261.724C66.2143 259.782 64.704 257.66 63.2588 255.66C61.8135 253.66 60.3358 251.596 58.8174 249.62C58.0055 248.531 57.1935 247.555 56.4303 246.653L55.797 247.165L56.0243 247.466Z" fill="#C3E5FE"/>
<path d="M77.955 236.256C73.4406 236.321 69.2509 236.467 65.2643 236.703L65.313 237.516C69.9005 237.248 74.764 237.093 80.0904 237.053C79.4049 236.721 78.69 236.454 77.955 236.256Z" fill="#C3E5FE"/>
<path d="M59.3127 236.719L58.7037 237.256C62.666 241.808 66.742 246.808 71.1509 252.522C74.5854 256.977 78.2554 261.903 82.7049 268.033L83.3626 267.553C78.905 261.416 75.2431 256.481 71.7923 252.026C67.3672 246.312 63.2912 241.304 59.3127 236.719Z" fill="#C3E5FE"/>
<path d="M67.2779 253.88C66.1006 252.295 64.9233 250.71 63.7135 249.149C61.7235 246.516 59.5903 243.995 57.3234 241.597L56.7388 242.158C58.9843 244.531 61.0985 247.024 63.072 249.628C64.2737 251.189 65.451 252.774 66.6283 254.351C67.8057 255.928 68.983 257.522 70.1928 259.091C72.1827 261.716 74.3131 264.232 76.5747 266.626L77.1593 266.065C74.919 263.69 72.8077 261.196 70.8342 258.595C69.6244 257.042 68.4471 255.465 67.2779 253.88Z" fill="#C3E5FE"/>
<path d="M90.9867 248.702H73.1726V249.515H90.9867V248.702Z" fill="#C3E5FE"/>
<path d="M71.1184 176.767C72.0765 176.718 73.0914 176.702 74.1957 176.702H76.1768C76.3149 176.442 76.4529 176.174 76.5747 175.889C75.7627 175.889 74.9508 175.889 74.1957 175.889C72.9534 175.889 71.8248 175.889 70.753 175.962V176.775L71.1184 176.767Z" fill="#C3E5FE"/>
<path d="M77.4272 172.938C77.4678 172.67 77.4922 172.402 77.5165 172.126H76.5666C73.5841 172.1 70.6025 172.239 67.6352 172.54L67.7245 173.353C70.657 173.059 73.6032 172.923 76.5503 172.947L77.4272 172.938Z" fill="#C3E5FE"/>
<path d="M93.6824 244.247C91.9124 244.409 89.9718 244.483 87.7471 244.483C85.5223 244.483 83.192 244.401 80.9673 244.328C78.7426 244.255 76.4367 244.174 74.1957 244.174C72.9534 244.174 71.8248 244.174 70.753 244.247V245.06H71.1022C72.0603 245.011 73.0752 244.995 74.1794 244.995C76.4123 244.995 78.702 245.068 80.9186 245.149C83.1352 245.23 85.4655 245.304 87.7308 245.304C89.9962 245.304 91.9448 245.222 93.7392 245.06L93.6824 244.247Z" fill="#C3E5FE"/>
<path d="M91.3521 268.423L92.091 268.098C91.3696 266.747 90.3438 265.584 89.0949 264.7L88.6727 265.391C89.7774 266.192 90.6922 267.227 91.3521 268.423Z" fill="#C3E5FE"/>
<path d="M45.193 194.733C44.6524 194.694 44.1097 194.694 43.5691 194.733L43.6584 195.545C44.04 195.505 44.4703 195.545 44.925 195.545C45.423 195.31 45.9033 195.038 46.3622 194.733C46.0293 194.733 45.6395 194.741 45.193 194.733Z" fill="#C3E5FE"/>
<path d="M9.84889 190.538C9.03695 190.579 6.07334 190.538 5.05841 190.538C4.77423 190.538 4.50628 190.538 4.24646 190.538C3.98664 190.538 3.43451 190.587 2.85803 190.538V190.912C2.96359 191.058 3.07726 191.213 3.19905 191.359H3.3046C3.69433 191.359 4.011 191.359 4.3033 191.359C4.5956 191.359 4.82294 191.359 5.11524 191.359C6.1383 191.359 9.1019 191.4 9.98692 191.359L9.84889 190.538Z" fill="#C3E5FE"/>
<path d="M16.4338 172.296C14.9851 172.449 13.5254 172.465 12.0737 172.345C11.2617 172.304 10.401 172.247 9.30492 172.247C7.51864 172.247 5.74047 172.247 3.96231 172.182H1.63202C1.53459 172.451 1.43715 172.719 1.34784 172.995L3.94607 173.036C5.73235 173.036 7.51052 173.101 9.30492 173.101C10.3767 173.101 11.213 173.15 12.0249 173.199C13.5226 173.323 15.0285 173.307 16.5231 173.15L16.4338 172.296Z" fill="#C3E5FE"/>
<path d="M15.7355 175.962C13.9655 176.125 12.0249 176.198 9.8002 176.198C7.57547 176.198 5.24518 176.117 3.02045 176.044L0.535894 175.962C0.479058 176.231 0.430339 176.499 0.381622 176.775L2.98797 176.857C5.22894 176.93 7.53487 177.011 9.8002 177.011C12.0655 177.011 14.0142 176.93 15.8086 176.767L15.7355 175.962Z" fill="#C3E5FE"/>
<path d="M13.0317 180.417H0.0405884C0.0405884 180.685 0.0405884 180.962 0.0405884 181.23H13.0317V180.417Z" fill="#C3E5FE"/>
<path d="M11.692 183.88C9.81499 183.794 7.93419 183.849 6.06523 184.043C4.75799 184.157 3.40204 184.27 2.08669 184.27C1.42089 184.27 0.795693 184.27 0.202972 184.181C0.202972 184.457 0.28417 184.734 0.332887 184.994C0.89313 185.043 1.46961 185.075 2.08669 185.075C3.43452 185.075 4.80671 184.961 6.14642 184.848C7.96142 184.659 9.78807 184.607 11.6108 184.693L11.692 183.88Z" fill="#C3E5FE"/>
<path d="M11.0749 187.132H9.45106C6.66372 187.038 3.87329 187.12 1.09613 187.376L1.18544 187.994C1.18544 188.05 1.18544 188.115 1.2504 188.172C3.97433 187.934 6.71 187.858 9.44294 187.945H11.0668L11.0749 187.132Z" fill="#C3E5FE"/>
<path d="M129.895 91.2735L129.416 91.932C131.592 93.5578 133.419 95.9071 135.035 97.9963L135.611 97.5573L135.563 97.3541C133.956 95.0807 132.049 93.0353 129.895 91.2735Z" fill="#C3E5FE"/>
<path d="M135.571 99.9879C133.744 99.9391 132.323 99.8822 131.056 99.8335C128.247 99.7278 126.185 99.6546 122.206 99.6546C115.662 99.6546 109.832 99.8091 104.343 100.134L104.392 100.947C109.832 100.63 115.646 100.476 122.174 100.476C126.16 100.476 128.19 100.549 130.991 100.654C132.266 100.703 133.687 100.76 135.514 100.809L135.571 99.9879Z" fill="#C3E5FE"/>
<path d="M133.492 104.012C132.043 104.164 130.584 104.181 129.132 104.061C128.32 104.02 127.459 103.963 126.355 103.963C124.577 103.963 122.799 103.963 121.021 103.898C119.243 103.833 117.456 103.833 115.67 103.833C112.687 103.808 109.706 103.946 106.739 104.248L106.828 105.06C109.76 104.766 112.707 104.631 115.654 104.654C117.432 104.654 119.21 104.654 120.988 104.719C122.766 104.784 124.553 104.784 126.339 104.784C127.419 104.784 128.255 104.833 129.067 104.882C130.565 105.006 132.071 104.99 133.565 104.833L133.492 104.012Z" fill="#C3E5FE"/>
<path d="M130.098 112.133H112.284V112.946H130.098V112.133Z" fill="#C3E5FE"/>
<path d="M132.794 107.678C131.024 107.841 129.083 107.914 126.859 107.914C124.634 107.914 122.304 107.832 120.079 107.759C117.854 107.686 115.548 107.605 113.307 107.605C112.065 107.605 110.936 107.605 109.864 107.678V108.491H110.205C111.172 108.442 112.187 108.426 113.291 108.426C115.516 108.426 117.813 108.499 120.03 108.58C122.247 108.662 124.577 108.735 126.842 108.735C129.108 108.735 131.056 108.654 132.851 108.491L132.794 107.678Z" fill="#C3E5FE"/>
<path d="M134.28 66.618L134.353 65.805L131.056 65.6831C128.913 65.6018 127.216 65.5368 124.756 65.5124C124.683 65.7807 124.626 66.057 124.569 66.3253C127.118 66.3253 128.832 66.4147 131.024 66.496L134.28 66.618Z" fill="#C3E5FE"/>
<path d="M129.7 63.7321L130.342 63.2362C129.911 62.6835 129.619 62.2445 129.351 61.8624C128.897 61.1267 128.352 60.452 127.727 59.8546L127.175 60.448C127.764 61.0057 128.282 61.6336 128.718 62.3177C128.953 62.7566 129.262 63.1631 129.7 63.7321Z" fill="#C3E5FE"/>
<path d="M134.58 63.2688C134.58 62.8704 134.645 62.4559 134.669 62.0738C133.303 60.2221 131.698 58.56 129.895 57.1313L129.416 57.7898C131.376 59.3752 133.113 61.2182 134.58 63.2688Z" fill="#C3E5FE"/>
<path d="M126.907 122.254C126.055 122.294 123.124 122.254 122.117 122.254C121.833 122.254 121.565 122.254 121.305 122.254C121.045 122.254 120.493 122.302 119.916 122.254V123.066H120.387C120.777 123.066 121.094 123.066 121.386 123.066C121.678 123.066 121.906 123.066 122.198 123.066C123.213 123.066 126.185 123.107 127.07 123.066L126.907 122.254Z" fill="#C3E5FE"/>
<path d="M104.376 236.719L104.424 237.532C108.622 237.288 113.047 237.142 117.854 237.085C117.773 236.809 117.684 236.532 117.586 236.272C112.869 236.305 108.517 236.459 104.376 236.719Z" fill="#C3E5FE"/>
<path d="M106.755 240.784L106.844 241.597C109.777 241.303 112.723 241.167 115.67 241.19H118.228C118.228 240.922 118.276 240.646 118.284 240.377C117.416 240.377 116.539 240.377 115.67 240.377C112.693 240.35 109.717 240.486 106.755 240.784Z" fill="#C3E5FE"/>
<path d="M129.7 132.017L130.342 131.521C129.911 130.968 129.619 130.529 129.351 130.147C128.897 129.411 128.352 128.736 127.727 128.139L127.175 128.732C127.764 129.29 128.282 129.918 128.718 130.602C128.953 131.041 129.262 131.448 129.7 132.017Z" fill="#C3E5FE"/>
<path d="M122.766 131.041C118.309 124.904 114.647 119.969 111.204 115.514C106.779 109.824 102.695 104.776 98.7246 100.207L98.1156 100.744C102.078 105.296 106.146 110.287 110.563 116.01C113.989 120.457 117.659 125.383 122.117 131.521L122.766 131.041Z" fill="#C3E5FE"/>
<path d="M123.189 116.539C125.014 116.345 126.852 116.291 128.685 116.376L128.75 115.563C126.873 115.477 124.993 115.532 123.124 115.726C121.816 115.84 120.46 115.953 119.145 115.953C117.903 115.966 116.664 115.837 115.451 115.571L115.272 116.384C116.543 116.671 117.843 116.808 119.145 116.791C120.493 116.766 121.865 116.653 123.189 116.539Z" fill="#C3E5FE"/>
<path d="M128.125 118.847H126.501C123.714 118.754 120.924 118.835 118.146 119.091L118.26 119.904C121 119.656 123.752 119.574 126.501 119.66H128.125V118.847Z" fill="#C3E5FE"/>
<path d="M121.021 69.7558C119.242 69.7558 117.456 69.6908 115.67 69.6908C113.137 69.6908 110.944 69.7639 108.931 69.9103C108.492 70.1948 108.07 70.5037 107.664 70.8288C110.019 70.6093 112.585 70.5037 115.67 70.5037C117.448 70.5037 119.226 70.5037 121.004 70.5687C122.783 70.6337 124.569 70.6337 126.355 70.6337C127.435 70.6337 128.271 70.6825 129.083 70.7313C130.581 70.8555 132.087 70.8392 133.581 70.6825L133.492 69.8696C132.043 70.0222 130.584 70.0385 129.132 69.9184C128.32 69.8777 127.459 69.8208 126.355 69.8208H123.96C123.96 69.9184 123.96 70.0078 123.919 70.1053C123.797 69.9997 123.659 69.9184 123.53 69.8208L121.021 69.7558Z" fill="#C3E5FE"/>
<path d="M104.424 32.679C107.55 32.5001 110.814 32.3701 114.257 32.2888C113.997 32.0124 113.746 31.7523 113.445 31.4759C110.27 31.549 107.25 31.671 104.343 31.8498L104.424 32.679Z" fill="#C3E5FE"/>
<path d="M106.844 36.7435C109.777 36.4494 112.723 36.3138 115.67 36.3371H117.245C117.075 36.0607 116.912 35.7843 116.742 35.5242H115.67C112.687 35.4987 109.706 35.6371 106.739 35.9387L106.844 36.7435Z" fill="#C3E5FE"/>
<path d="M104.546 39.8082C105.212 40.0683 105.715 40.9706 106.105 42.0193C107.559 43.8321 109.036 45.7099 110.563 47.7097C113.989 52.1563 117.659 57.0825 122.117 63.22L122.766 62.7404C118.309 56.6029 114.647 51.6685 111.204 47.2138C106.779 41.5234 102.695 36.4753 98.7246 31.9067L98.1156 32.4432C100.137 34.7681 102.175 37.2069 104.295 39.7594C104.381 39.7571 104.467 39.7737 104.546 39.8082Z" fill="#C3E5FE"/>
<path d="M108.809 51.8636C108.996 52.5709 109.191 53.27 109.385 53.9691C109.459 54.0585 109.523 54.1561 109.597 54.2536C111.591 56.8773 113.724 59.3927 115.987 61.7893L116.571 61.2284C114.331 58.8532 112.22 56.3594 110.246 53.7577C109.759 53.1318 109.28 52.4977 108.809 51.8636Z" fill="#C3E5FE"/>
<path d="M121.272 53.9935C120.891 53.9935 120.46 54.0422 119.884 53.9935V54.8064H120.355C120.745 54.8064 121.061 54.8064 121.354 54.8064C121.646 54.8064 121.873 54.8064 122.165 54.8064H123.432C123.432 54.5381 123.343 54.2617 123.294 53.9935H122.182C121.833 53.961 121.565 53.9772 121.272 53.9935Z" fill="#C3E5FE"/>
<path d="M116.417 66.366L120.59 66.3253C121.125 66.1393 121.625 65.8645 122.068 65.5124C119.519 65.5124 117.075 65.5124 114.761 65.5856C115.275 65.919 115.832 66.1815 116.417 66.366Z" fill="#C3E5FE"/>
<path d="M118.268 51.6116C119.748 51.4383 121.236 51.3569 122.726 51.3678C122.669 51.0995 122.604 50.8231 122.547 50.5549C121.079 50.5509 119.612 50.635 118.154 50.8069L118.268 51.6116Z" fill="#C3E5FE"/>
<path d="M109.856 39.3936V40.2065H110.197C111.164 40.1577 112.179 40.1415 113.283 40.1415C115.231 40.1415 117.229 40.1984 119.194 40.2715C119.072 39.987 118.942 39.7188 118.82 39.4586C116.977 39.4017 115.118 39.3448 113.283 39.3448C112.065 39.3204 110.936 39.3448 109.856 39.3936Z" fill="#C3E5FE"/>
<path d="M115.451 47.3114L115.272 48.1243C116.543 48.4111 117.843 48.5475 119.145 48.5307C120.095 48.5307 121.053 48.4657 122.003 48.3925L121.784 47.5796C120.907 47.6446 120.014 47.7016 119.145 47.7016C117.903 47.7111 116.664 47.5802 115.451 47.3114Z" fill="#C3E5FE"/>
<path d="M112.292 44.6613H120.923C120.834 44.3849 120.736 44.1166 120.639 43.8484H112.292V44.6613Z" fill="#C3E5FE"/>
<path d="M51.4693 160.216C53.6453 161.842 55.4722 164.192 57.088 166.281L57.7294 165.785C56.1055 163.655 54.2218 161.233 51.9483 159.558L51.4693 160.216Z" fill="#C3E5FE"/>
<path d="M52.1513 155.29C52.9633 156.306 55.2205 158.924 57.2341 161.233C58.7849 163.013 60.2464 164.687 60.6443 165.2C61.0421 165.712 61.3263 166.126 61.6267 166.573L62.3006 166.126C62.0002 165.663 61.6592 165.191 61.2857 164.704C60.9122 164.216 59.467 162.566 57.8431 160.696C55.8376 158.395 53.5641 155.819 52.7928 154.794L52.1513 155.29Z" fill="#C3E5FE"/>
<path d="M18.2038 173.89C20.4441 176.265 22.5555 178.759 24.5289 181.36C25.7387 182.921 26.916 184.506 28.0852 186.083C29.2544 187.66 30.4399 189.254 31.6497 190.822C33.0381 192.619 34.3128 194.188 35.5389 195.61C36.052 195.827 36.578 196.012 37.1141 196.163C35.6038 194.481 34.0368 192.586 32.2911 190.327C31.0894 188.758 29.9121 187.181 28.7429 185.595C27.5737 184.01 26.3801 182.425 25.1784 180.864C23.1861 178.233 21.053 175.712 18.7884 173.312L18.2038 173.89Z" fill="#C3E5FE"/>
<path d="M27.6468 253.79L28.4587 253.538C27.3707 252.075 26.2827 250.612 25.1703 249.165L25.0323 248.986C24.8456 249.189 24.6669 249.409 24.4883 249.612V249.661C25.5844 251.01 26.6156 252.392 27.6468 253.79Z" fill="#C3E5FE"/>
<path d="M20.1687 168.988C24.1229 173.54 28.1989 178.531 32.6159 184.254C35.409 187.88 38.3645 191.83 41.7746 196.488C42.0669 196.44 42.3674 196.383 42.6597 196.318C39.1521 191.522 36.1154 187.465 33.2573 183.758C28.8322 178.027 24.7481 173.02 20.7777 168.451L20.1687 168.988Z" fill="#C3E5FE"/>
<path d="M101.891 262.578L93.5688 251.783L92.9273 252.287L101.42 263.293C101.583 263.05 101.737 262.814 101.891 262.578Z" fill="#C3E5FE"/>
<path d="M99.7801 266.025C99.1143 265.212 98.4404 264.472 97.7584 263.732C96.7841 262.659 95.7691 261.546 94.8679 260.391C93.9666 259.237 93.0004 258.091 92.0179 257.034L91.4252 257.587C92.3914 258.627 93.4145 259.83 94.2264 260.887C95.1439 262.074 96.167 263.196 97.1657 264.277C97.9045 265.09 98.6515 265.903 99.366 266.797L99.7801 266.025Z" fill="#C3E5FE"/>
<path d="M27.6711 164.98L23.1973 159.176C22.6533 158.899 22.1499 158.582 21.5734 158.322L21.4597 158.274L27.0135 165.476L27.6711 164.98Z" fill="#C3E5FE"/>
<path d="M38.0397 164.216L38.6243 163.655C36.384 161.28 34.2727 158.786 32.2992 156.184L31.5522 156.55L31.6497 156.68C33.6446 159.304 35.7776 161.819 38.0397 164.216Z" fill="#C3E5FE"/>
<path d="M48.5544 153.803H50.1783V152.99H48.5544C45.7671 152.896 42.9766 152.977 40.1995 153.234L40.3131 154.046C43.0527 153.798 45.8049 153.716 48.5544 153.803Z" fill="#C3E5FE"/>
<path d="M44.8194 165.183C41.8558 161.119 39.2414 157.55 36.8055 154.315L35.9936 154.615C38.4294 157.867 41.1251 161.493 44.1131 165.663L44.8194 165.183Z" fill="#C3E5FE"/>
<path d="M19.2107 161.85C20.1931 162.932 21.208 164.037 22.1012 165.2C22.4666 165.671 22.7913 166.118 23.0836 166.573L23.7657 166.126C23.4571 165.655 23.1242 165.191 22.7426 164.704C21.8332 163.517 20.8021 162.395 19.8115 161.306C18.8209 160.216 17.8385 159.143 16.9534 157.997C16.6955 158.097 16.448 158.222 16.2146 158.371C16.2388 158.399 16.2606 158.429 16.2795 158.46C17.197 159.647 18.2201 160.769 19.2107 161.85Z" fill="#C3E5FE"/>
<path d="M32.8107 164.891L33.4035 164.338C32.0637 162.891 30.6834 161.241 29.1813 159.298C28.9378 158.981 28.6942 158.647 28.4587 158.33C28.2232 158.469 27.9959 158.615 27.7686 158.761L28.5399 159.794C30.0501 161.761 31.4548 163.427 32.8107 164.891Z" fill="#C3E5FE"/>
<path d="M18.553 166.281L19.1944 165.785C18.0171 164.265 16.2552 162.265 14.7044 160.493C14.5744 160.338 14.4445 160.2 14.3146 160.054C14.0954 160.216 13.8843 160.379 13.6813 160.558L14.0954 161.029C15.6706 162.785 17.3919 164.785 18.553 166.281Z" fill="#C3E5FE"/>
<path d="M13.4052 165.996L14.1441 165.671C13.4227 164.321 12.3969 163.157 11.148 162.273L10.7258 162.964C11.8305 163.765 12.7453 164.801 13.4052 165.996Z" fill="#C3E5FE"/>
<path d="M5.11527 168.752C9.11004 168.752 11.1318 168.825 13.933 168.931C15.2078 168.98 16.6287 169.036 18.4555 169.085V168.272C16.6368 168.224 15.2078 168.167 13.9411 168.118C11.1318 168.012 9.06945 167.939 5.09091 167.939H3.46702L3.02856 168.752H5.11527Z" fill="#C3E5FE"/>
<path d="M180.431 147.218C181.633 148.779 182.81 150.364 183.979 151.941C185.148 153.518 186.342 155.111 187.543 156.68C189.538 159.304 191.671 161.819 193.933 164.216L194.518 163.655C192.278 161.28 190.166 158.786 188.193 156.184C186.983 154.615 185.806 153.038 184.637 151.453C183.467 149.868 182.282 148.283 181.072 146.722C179.099 144.161 177.354 142.064 175.648 140.219C175.648 140.487 175.697 140.763 175.746 141.032L175.6 141.365C177.11 143.048 178.677 144.95 180.431 147.218Z" fill="#C3E5FE"/>
<path d="M126.095 126.432C125.576 126.432 125.113 126.432 124.618 126.432C124.122 126.432 123.668 126.432 123.107 126.432C122.567 126.393 122.024 126.393 121.483 126.432L121.573 127.245C122.065 127.216 122.558 127.216 123.051 127.245C123.627 127.245 124.13 127.245 124.601 127.245C125.067 127.22 125.533 127.22 125.998 127.245L126.095 126.432Z" fill="#C3E5FE"/>
<path d="M134.686 105.605C135.571 106.532 136.464 107.524 137.39 108.597C137.39 108.133 137.308 107.67 137.251 107.198C136.586 106.442 135.928 105.727 135.27 105.044L134.686 105.605Z" fill="#C3E5FE"/>
<path d="M172.376 240.581C171.39 240.692 170.397 240.733 169.405 240.703C169.461 240.979 169.526 241.247 169.599 241.516C170.554 241.538 171.508 241.497 172.457 241.394L172.376 240.581Z" fill="#C3E5FE"/>
<path d="M196.215 85.7538C197.023 85.6475 197.836 85.5824 198.651 85.5588C198.513 85.2986 198.391 85.0304 198.277 84.7458C197.465 84.7865 196.653 84.8434 196.069 84.9328L196.215 85.7538Z" fill="#C3E5FE"/>
<path d="M193.219 82.2177C194.49 82.5045 195.79 82.6409 197.092 82.6242H197.295C197.295 82.6242 197.295 82.5672 197.254 82.5429C197.1 82.2909 196.938 82.047 196.775 81.8112C195.639 81.8076 194.507 81.6822 193.398 81.4373L193.219 82.2177Z" fill="#C3E5FE"/>
<path d="M191.295 65.6181C188.169 65.6994 185.197 65.8213 182.323 65.992L182.371 66.8049C185.213 66.6423 188.161 66.5204 191.254 66.4391C191.27 66.1627 191.287 65.8863 191.295 65.6181Z" fill="#C3E5FE"/>
<path d="M191.1 70.5362C191.1 70.2435 191.1 69.9753 191.1 69.7233C188.721 69.7721 186.65 69.894 184.693 70.1053L184.783 70.9182C186.707 70.7069 188.761 70.585 191.1 70.5362Z" fill="#C3E5FE"/>
<path d="M190.239 78.8035H193.771C193.346 78.503 192.901 78.2315 192.439 77.9906H190.239V78.8035Z" fill="#C3E5FE"/>
<path d="M188.169 74.3406C189.111 74.2918 190.085 74.2756 191.157 74.2756C191.157 74.0073 191.157 73.7309 191.157 73.4627C189.947 73.4627 188.851 73.4627 187.803 73.5358V74.3487L188.169 74.3406Z" fill="#C3E5FE"/>
<path d="M188.705 62.464L189.297 61.9112C187.958 60.4642 186.577 58.814 185.075 56.8712C184.141 55.6681 183.232 54.4324 182.339 53.1887C182.233 53.5057 182.128 53.8309 182.03 54.1479C182.842 55.2291 183.614 56.3103 184.466 57.3996C185.944 59.3343 187.349 61.0008 188.705 62.464Z" fill="#C3E5FE"/>
<path d="M175.088 234.069C174.276 232.988 173.115 231.631 171.97 230.346C171.8 230.557 171.637 230.785 171.475 231.013C172.571 232.273 173.651 233.533 174.447 234.565L175.088 234.069Z" fill="#C3E5FE"/>
<path d="M175.088 131.643C174.495 130.878 173.757 130.017 172.969 129.074C172.921 129.467 172.904 129.864 172.92 130.261C173.481 130.935 174.008 131.569 174.447 132.138L175.088 131.643Z" fill="#C3E5FE"/>
<path d="M174.382 237.37V236.557C172.563 236.508 171.134 236.451 169.867 236.402H169.291C169.242 236.671 169.21 236.939 169.185 237.215H169.835C171.134 237.264 172.555 237.321 174.382 237.37Z" fill="#C3E5FE"/>
<path d="M177.995 131.041C178.36 131.513 178.685 131.96 178.977 132.415L179.659 131.968C179.351 131.496 179.018 131.033 178.644 130.545C177.727 129.358 176.704 128.237 175.705 127.147C175.226 126.619 174.739 126.082 174.26 125.521C174.101 125.758 173.955 126.002 173.822 126.253C174.252 126.733 174.682 127.212 175.113 127.676C176.087 128.789 177.102 129.895 177.995 131.041Z" fill="#C3E5FE"/>
<path d="M191.473 51.571C191.473 51.0833 191.425 50.6036 191.392 50.1159L189.151 47.1894C188.217 45.9782 187.3 44.8076 186.39 43.6533C186.244 43.9134 186.114 44.1735 185.976 44.4662C186.788 45.523 187.649 46.6041 188.51 47.7178C189.468 48.948 190.456 50.2324 191.473 51.571Z" fill="#C3E5FE"/>
<path d="M187.543 54.2536C188.972 56.0989 190.272 57.7003 191.53 59.1311C191.53 58.7246 191.53 58.3182 191.53 57.9036C190.466 56.6517 189.362 55.286 188.177 53.7415C186.991 52.1969 185.79 50.5955 184.62 49.0103L184.117 48.3438C183.995 48.6364 183.882 48.9372 183.768 49.2298L183.963 49.4981C185.156 51.0995 186.342 52.6847 187.543 54.2536Z" fill="#C3E5FE"/>
<path d="M173.188 247.165L173.416 247.466C173.61 247.669 173.797 247.897 173.976 248.116C174.622 248.623 175.318 249.062 176.054 249.425C175.242 248.417 174.536 247.499 173.813 246.653L173.188 247.165Z" fill="#C3E5FE"/>
<path d="M183.573 62.5534L180.634 58.749C180.536 59.0742 180.447 59.3993 180.358 59.7164L182.932 63.0493L183.573 62.5534Z" fill="#C3E5FE"/>
<path d="M183.979 83.6566C185.156 85.2417 186.342 86.8269 187.543 88.3958C189.538 91.0195 191.671 93.5349 193.933 95.9315L194.518 95.3706C192.278 92.9954 190.166 90.5016 188.193 87.8999C186.983 86.331 185.806 84.754 184.637 83.1688C183.467 81.5836 182.282 79.9985 181.072 78.4377C179.391 76.2591 177.881 74.4219 176.42 72.7473C176.33 73.0643 176.249 73.3814 176.168 73.6984C177.508 75.2186 178.896 76.95 180.431 78.901C181.632 80.4943 182.81 82.0795 183.979 83.6566Z" fill="#C3E5FE"/>
<path d="M194.518 231.939C192.278 229.564 190.166 227.07 188.193 224.469C187.381 223.428 186.569 222.38 185.814 221.323C185.717 221.659 185.627 221.992 185.546 222.323C186.204 223.201 186.869 224.087 187.543 224.965C189.538 227.588 191.671 230.104 193.933 232.5L194.518 231.939Z" fill="#C3E5FE"/>
<path d="M188.705 233.175L189.297 232.622C187.958 231.175 186.577 229.525 185.075 227.582C184.677 227.07 184.263 226.542 183.906 226.021C183.565 226.021 183.224 226.021 182.875 226.021C183.386 226.721 183.906 227.42 184.434 228.103C185.944 230.045 187.349 231.712 188.705 233.175Z" fill="#C3E5FE"/>
<path d="M188.169 176.767C189.135 176.718 190.15 176.702 191.254 176.702H193.227C193.471 176.453 193.706 176.182 193.933 175.889C193.04 175.889 192.139 175.889 191.254 175.889C190.012 175.889 188.883 175.889 187.811 175.962V176.775L188.169 176.767Z" fill="#C3E5FE"/>
<path d="M175.51 175.41C177.053 177.117 178.645 179.052 180.431 181.36C181.632 182.921 182.81 184.506 183.979 186.083L185.928 188.693C186.025 188.359 186.114 188.034 186.204 187.701C185.676 187.002 185.156 186.303 184.637 185.595C183.459 184.01 182.282 182.425 181.072 180.864C179.042 178.239 177.256 176.093 175.51 174.207V175.41Z" fill="#C3E5FE"/>
<path d="M187.552 183.067C187.69 182.807 187.819 182.539 187.974 182.254C183.995 177.141 180.285 172.613 176.671 168.435L176.062 168.971C179.732 173.207 183.508 177.816 187.552 183.067Z" fill="#C3E5FE"/>
<path d="M196.093 172.955L196.645 172.142C195.639 172.142 194.624 172.142 193.617 172.142C190.634 172.116 187.653 172.255 184.685 172.556L184.775 173.369C187.707 173.075 190.653 172.939 193.601 172.963C194.445 172.93 195.265 172.938 196.093 172.955Z" fill="#C3E5FE"/>
<path d="M177.678 164.809C177.784 164.939 177.898 165.069 177.995 165.2C178.36 165.671 178.685 166.118 178.977 166.573L179.659 166.126C179.351 165.655 179.018 165.191 178.644 164.704C178.474 164.484 178.295 164.281 178.117 164.07C177.962 164.313 177.816 164.557 177.678 164.809Z" fill="#C3E5FE"/>
<path d="M176.688 157.387L182.932 165.517L183.573 165.021L176.436 155.762C176.478 156.309 176.562 156.853 176.688 157.387Z" fill="#C3E5FE"/>
<path d="M184.271 192.822L184.417 192.53C183.118 190.822 181.852 189.067 180.618 187.351C179.18 185.352 177.695 183.287 176.176 181.311L175.535 180.499C175.535 180.905 175.535 181.311 175.47 181.726L175.535 181.807C177.045 183.766 178.523 185.831 179.96 187.831C181.267 189.644 182.615 191.513 184.02 193.318C184.111 193.157 184.195 192.992 184.271 192.822Z" fill="#C3E5FE"/>
<path d="M173.862 187.872L179.895 195.684C180.209 195.674 180.521 195.636 180.829 195.57L174.163 186.929C174.065 187.246 174 187.555 173.862 187.872Z" fill="#C3E5FE"/>
<path d="M188.169 142.625C189.135 142.576 190.15 142.56 191.254 142.56C193.479 142.56 195.777 142.633 197.993 142.714H198.951C198.951 142.438 198.951 142.17 199 141.902H198.026C195.801 141.82 193.495 141.747 191.254 141.747C190.012 141.747 188.883 141.747 187.811 141.82V142.633L188.169 142.625Z" fill="#C3E5FE"/>
<path d="M183.573 233.264L178.295 226.436H178.035C177.824 226.477 177.63 226.542 177.427 226.599L182.932 233.72L183.573 233.264Z" fill="#C3E5FE"/>
<path d="M173.862 145.592C174.398 146.251 174.95 146.933 175.535 147.689C177.045 149.649 178.523 151.754 179.96 153.713C181.397 155.672 182.899 157.778 184.434 159.794C185.968 161.81 187.349 163.427 188.704 164.891L189.297 164.338C187.958 162.891 186.577 161.241 185.075 159.298C183.573 157.355 182.063 155.233 180.618 153.234C179.172 151.234 177.695 149.169 176.176 147.194C175.47 146.275 174.804 145.462 174.154 144.682C174.041 144.982 173.943 145.291 173.862 145.592Z" fill="#C3E5FE"/>
<path d="M175.113 230.135C176.087 231.216 177.102 232.322 177.995 233.484C178.36 233.955 178.685 234.403 178.977 234.858L179.659 234.411C179.351 233.939 179.018 233.476 178.645 232.988C177.727 231.801 176.704 230.679 175.705 229.59L174.349 228.086C174.13 228.241 173.911 228.403 173.7 228.574C174.171 229.102 174.642 229.631 175.113 230.135Z" fill="#C3E5FE"/>
<path d="M181.023 113.864C182.022 115.165 183.005 116.482 183.979 117.799C185.156 119.384 186.342 120.969 187.543 122.538C189.538 125.162 191.671 127.677 193.933 130.074L194.518 129.513C192.278 127.138 190.166 124.644 188.193 122.042C186.983 120.473 185.806 118.896 184.637 117.311C183.467 115.726 182.306 114.181 181.113 112.637C181.088 113.043 181.056 113.458 181.023 113.864Z" fill="#C3E5FE"/>
<path d="M176.785 123.375L182.932 131.334L183.573 130.838L177.548 123.034C177.287 123.133 177.033 123.247 176.785 123.375Z" fill="#C3E5FE"/>
<path d="M180.601 119.067C180.561 119.481 180.528 119.88 180.496 120.311C181.779 122.091 183.086 123.904 184.434 125.651C185.944 127.619 187.349 129.285 188.704 130.748L189.297 130.196C187.958 128.749 186.577 127.098 185.075 125.156C183.573 123.213 182.063 121.099 180.601 119.067Z" fill="#C3E5FE"/>
<path d="M179.96 85.4287C181.405 87.4366 182.899 89.4932 184.434 91.5093C185.968 93.5253 187.349 95.143 188.704 96.6062L189.297 96.0534C187.957 94.6064 186.577 92.9562 185.075 91.0134C183.573 89.0705 182.063 86.9488 180.618 84.9491C179.172 82.9493 177.695 80.8845 176.176 78.9091L175.364 77.9093C175.316 78.2995 175.283 78.7222 175.259 79.088L175.51 79.405C177.045 81.3641 178.523 83.4289 179.96 85.4287Z" fill="#C3E5FE"/>
<path d="M129.895 125.416L129.416 126.074C131.381 127.66 133.12 129.506 134.588 131.561C134.759 131.334 134.921 131.106 135.075 130.87C133.6 128.828 131.858 126.994 129.895 125.416Z" fill="#C3E5FE"/>
<path d="M122.206 133.797C120.639 133.797 119.121 133.797 117.627 133.797C117.995 134.09 118.38 134.361 118.78 134.61H122.206C126.112 134.61 128.133 134.683 130.853 134.78C131.274 134.551 131.681 134.296 132.071 134.016H131.056C128.247 133.87 126.209 133.797 122.206 133.797Z" fill="#C3E5FE"/>
<path d="M130.74 120.652L130.098 121.148C130.91 122.164 133.167 124.782 135.181 127.09L136.35 128.432C136.464 128.147 136.569 127.854 136.667 127.562L135.79 126.554C133.784 124.253 131.511 121.652 130.74 120.652Z" fill="#C3E5FE"/>
<path d="M136.764 113.051C135.952 111.962 135.14 110.987 134.377 110.084L133.744 110.596L133.971 110.897C134.669 111.71 135.376 112.58 136.123 113.547C136.675 114.271 137.227 115.01 137.747 115.758C137.747 115.287 137.747 114.823 137.747 114.36C137.414 113.921 137.097 113.482 136.764 113.051Z" fill="#C3E5FE"/>
<path d="M131.462 115.718L137.471 123.497C137.471 123.091 137.528 122.684 137.56 122.286L132.104 115.214L131.462 115.718Z" fill="#C3E5FE"/>
<path d="M176.671 236.719L176.062 237.256C180.025 241.808 184.093 246.799 188.51 252.522L188.81 252.913C189.192 253.067 189.573 253.213 189.963 253.351L190.231 253.441C189.874 252.961 189.508 252.49 189.151 252.026C184.726 246.312 180.642 241.304 176.671 236.719Z" fill="#C3E5FE"/>
<path d="M174.682 241.597L174.098 242.158C176.341 244.533 178.455 247.026 180.431 249.628L181.186 250.62H181.308C181.598 250.625 181.888 250.608 182.176 250.571L181.08 249.124C179.085 246.502 176.949 243.989 174.682 241.597Z" fill="#C3E5FE"/>
<path d="M57.5986 237.256L57.4046 237.361H57.5986V237.256Z" fill="#C3E5FE"/>
<path d="M62.2998 234.411L62.1139 234.532L62.2998 234.411Z" fill="#C3E5FE"/>
<path d="M58.6462 181.124L58.5411 180.986C58.4522 180.97 58.4845 181.019 58.6462 181.124Z" fill="#C3E5FE"/>
<path d="M174.405 134.13H174.219C174.284 134.203 174.333 134.276 174.397 134.341L174.405 134.13Z" fill="#C3E5FE"/>
<path d="M170.038 233.915C170.027 233.886 170.014 233.859 169.997 233.834C169.997 233.874 169.997 233.915 169.997 233.947L170.038 233.915Z" fill="#C3E5FE"/>
<path d="M125.786 62.5691L125.713 62.3908C125.713 62.4637 125.657 62.5286 125.633 62.6015L125.786 62.5691Z" fill="#C3E5FE"/>
<path d="M44.0237 222.851L43.9588 222.754L43.9101 222.583C43.8708 222.435 43.8017 222.297 43.7071 222.176C43.8045 221.363 43.8126 220.551 43.8451 219.656C43.9344 217.518 44.04 215.177 43.2443 213.153C43.2181 213.064 43.1665 212.984 43.096 212.924C43.0255 212.864 42.9389 212.825 42.8469 212.813C42.7549 212.801 42.6613 212.816 42.5776 212.856C42.494 212.896 42.4237 212.96 42.3755 213.039C41.2712 214.714 40.7516 216.754 39.9396 218.575C39.1277 220.396 37.6581 222.168 38.4294 224.266C38.9004 225.55 40.4674 226.525 41.7828 225.631L42.0426 225.436C42.2553 225.584 42.4841 225.706 42.7246 225.802C42.9559 225.864 43.1983 225.872 43.4332 225.826C43.6682 225.78 43.8894 225.68 44.0799 225.535C44.2704 225.39 44.4251 225.203 44.5322 224.988C44.6393 224.774 44.6959 224.538 44.6977 224.298C44.6864 224.024 44.6211 223.755 44.5054 223.507C44.3897 223.259 44.226 223.036 44.0237 222.851Z" fill="#C3E5FE"/>
<path d="M72.5555 203.886C72.5177 203.753 72.4378 203.637 72.328 203.554C72.2181 203.471 72.0842 203.426 71.9466 203.426C71.8089 203.426 71.6751 203.471 71.5652 203.554C71.4553 203.637 71.3754 203.753 71.3376 203.886C70.4201 207.095 69.6774 210.351 69.1129 213.641C68.439 216.803 67.424 219.892 67.148 223.119C66.8232 227.054 73.1077 227.85 74.0008 224.046C75.4136 218.071 74.7072 209.649 72.5555 203.886Z" fill="#C3E5FE"/>
<path d="M106.487 206.991C106.251 201.992 106.138 196.854 104.66 192.042C104.616 191.906 104.531 191.787 104.415 191.703C104.3 191.619 104.161 191.574 104.018 191.574C103.876 191.574 103.737 191.619 103.622 191.703C103.506 191.787 103.421 191.906 103.377 192.042C101.493 196.749 100.771 201.894 99.8613 206.869C98.9844 211.649 97.9613 216.876 98.0425 221.737C98.1075 225.973 104.676 227.151 105.642 222.762C106.747 217.746 106.73 212.104 106.487 206.991Z" fill="#C3E5FE"/>
<path d="M136.862 205.585C136.513 199.342 136.05 192.838 134.264 186.823C134.077 186.197 133.054 186.116 132.916 186.823C131.771 192.725 131.365 198.773 130.374 204.707C129.441 210.243 127.427 216.901 128.028 222.526C128.369 225.721 133.354 228.216 135.002 224.412C137.414 218.835 137.195 211.609 136.862 205.585Z" fill="#C3E5FE"/>
<path d="M167.269 181.181C167.204 181.042 167.1 180.924 166.97 180.841C166.839 180.758 166.688 180.714 166.534 180.714C166.38 180.714 166.229 180.758 166.099 180.841C165.969 180.924 165.865 181.042 165.799 181.181C164.221 187.507 163.041 193.925 162.268 200.399C161.456 207.089 159.953 214.218 160.035 220.924C160.091 225.03 166.205 225.997 167.261 221.908C168.966 215.356 168.974 207.926 169.104 201.187C169.246 194.471 168.63 187.76 167.269 181.181Z" fill="#C3E5FE"/>
<path d="M171.231 60.9682C171.022 60.6157 170.698 60.346 170.314 60.2041C170.15 58.9939 169.845 57.8071 169.405 56.6679C169.365 56.5387 169.284 56.4256 169.175 56.3453C169.067 56.265 168.935 56.2217 168.8 56.2217C168.664 56.2217 168.533 56.265 168.424 56.3453C168.315 56.4256 168.235 56.5387 168.195 56.6679C167.985 57.7407 167.855 58.8276 167.805 59.9196C167.727 60.648 167.589 61.3686 167.391 62.0738C167.253 62.4315 167.139 62.8054 167.034 63.1793C166.928 63.5533 166.798 63.8216 166.668 64.1305C166.565 64.3625 166.52 64.6167 166.538 64.8702C166.464 65.0756 166.377 65.2765 166.279 65.4718C165.885 66.3128 165.321 67.0624 164.622 67.6727C163.923 68.283 163.105 68.7405 162.219 69.016C162.062 69.0642 161.922 69.1567 161.816 69.2825C161.71 69.4084 161.643 69.5621 161.623 69.7252C161.602 69.8884 161.629 70.054 161.7 70.2022C161.771 70.3504 161.884 70.4748 162.024 70.5606C166.547 73.8041 173.748 65.1954 171.231 60.9682Z" fill="#C3E5FE"/>
<path d="M171.173 1.71811L121.336 5.94314L124.447 42.7338L174.285 38.5088L171.173 1.71811Z" fill="#FFCC80" stroke="#FFCC80" stroke-miterlimit="10"/>
<path d="M149.95 14.9657C150.46 15.2761 151.038 15.4544 151.634 15.4842C152.229 15.514 152.823 15.3944 153.36 15.1364C154.286 17.7052 152.792 20.5504 153.166 23.2655C153.377 24.81 154.107 26.6391 153.011 27.7365C152.508 28.2405 151.639 28.5494 151.655 29.2729C151.672 29.9964 152.654 30.3053 153.409 30.3378C155.228 30.4028 157.063 30.3784 158.882 30.2646C160.102 30.2905 161.302 29.9478 162.324 29.281C163.274 28.5169 163.656 26.9317 162.779 26.0863C162.316 25.6392 161.61 25.4929 161.155 25.0214C160.695 24.3791 160.492 23.587 160.587 22.8021C160.587 20.1358 162.146 11.2263 159.288 10.2101C158.127 9.79556 155.179 11.1613 154.051 11.462C150.795 12.3075 152.005 12.9578 149.95 14.9657Z" fill="white" stroke="#FFCC80" stroke-miterlimit="10"/>
<path d="M150.145 38.8652C149.033 38.1336 147.709 37.3613 146.443 37.6865C145.958 37.8335 145.516 38.0981 145.158 38.4569C144.8 38.8156 144.535 39.2575 144.389 39.7432C144.109 40.7168 144.075 41.7449 144.291 42.7347C144.33 43.0271 144.439 43.3059 144.608 43.5476C144.856 43.7956 145.173 43.9628 145.517 44.0272C147.513 44.5437 149.629 44.3064 151.461 43.3606C151.606 42.6812 151.535 41.9734 151.258 41.3365" fill="white"/>
<path d="M150.145 38.8652C149.033 38.1336 147.709 37.3613 146.443 37.6865C145.958 37.8335 145.516 38.0981 145.158 38.4569C144.8 38.8156 144.535 39.2575 144.389 39.7432C144.109 40.7168 144.075 41.7449 144.291 42.7347C144.33 43.0271 144.439 43.3059 144.608 43.5476C144.856 43.7956 145.173 43.9628 145.517 44.0272C147.513 44.5437 149.629 44.3064 151.461 43.3606C151.606 42.6812 151.535 41.9734 151.258 41.3365" stroke="#FFCC80" stroke-miterlimit="10"/>
<path d="M166.466 134.262L146.581 135.059L150.178 225.106L170.063 224.31L166.466 134.262Z" fill="#FFCC80" stroke="#FFCC80" stroke-miterlimit="10"/>
<path d="M133.923 141.418L117.9 142.059L121.194 224.512L137.217 223.87L133.923 141.418Z" fill="#FFCC80" stroke="#FFCC80" stroke-miterlimit="10"/>
<path d="M59.5157 226.745C59.2161 226.747 58.9266 226.637 58.7031 226.437C58.4796 226.238 58.338 225.962 58.3059 225.664C57.0311 213.86 56.5196 202.089 56.138 187.977C56.1318 187.814 56.1589 187.651 56.2175 187.499C56.2761 187.347 56.3651 187.208 56.479 187.091C56.7118 186.859 57.0269 186.727 57.3559 186.725C62.9827 186.725 67.7082 186.79 72.5312 187.018C72.83 187.035 73.1122 187.161 73.3245 187.372C73.5369 187.584 73.6648 187.865 73.6841 188.164C74.4961 201.073 75.511 214.055 76.4366 225.209C76.4489 225.38 76.4256 225.553 76.3683 225.715C76.3111 225.877 76.221 226.026 76.1037 226.152C75.9847 226.276 75.8408 226.375 75.6814 226.441C75.522 226.507 75.3505 226.538 75.1781 226.534L73.5542 226.477C71.4432 226.404 69.2672 226.322 67.1317 226.322C64.649 226.301 62.1674 226.439 59.7024 226.737L59.5157 226.745ZM58.6063 189.164C58.9636 202.171 59.4182 213.21 60.6037 224.176C62.5686 223.981 64.6634 223.883 67.0993 223.883C69.2753 223.883 71.4757 223.965 73.5948 224.038H73.8871C73.0184 213.47 72.0521 201.447 71.3133 189.4C67.2698 189.237 63.2263 189.18 58.5982 189.164H58.6063Z" fill="#525D7D"/>
<path d="M30.2206 226.745C29.9414 226.744 29.6709 226.647 29.4539 226.472C29.2368 226.296 29.0863 226.051 29.0271 225.778C27.7899 219.177 27.0597 212.492 26.843 205.78C26.8341 205.615 26.8591 205.449 26.9163 205.293C26.9736 205.138 27.0619 204.996 27.1759 204.875C27.2899 204.755 27.4271 204.66 27.5793 204.594C27.7314 204.529 27.8953 204.495 28.0609 204.496C33.6795 204.496 38.4132 204.496 43.2037 204.65C43.4971 204.658 43.7778 204.772 43.9941 204.97C44.2104 205.169 44.3478 205.439 44.381 205.731C45.1929 212.503 46.2079 219.347 47.1254 225.241C47.1527 225.417 47.1415 225.597 47.0924 225.768C47.0433 225.94 46.9576 226.098 46.8412 226.233C46.7216 226.362 46.5772 226.465 46.4167 226.536C46.2563 226.607 46.083 226.645 45.9075 226.647H44.2836C42.1644 226.607 39.9721 226.566 37.788 226.566C34.9218 226.566 32.5428 226.631 30.2856 226.786L30.2206 226.745ZM29.3437 206.934C29.5723 212.742 30.1962 218.527 31.2112 224.249C33.2086 224.136 35.3278 224.087 37.8042 224.087C39.9721 224.087 42.1806 224.127 44.2998 224.168H44.4866C43.6746 218.917 42.7815 212.991 42.0507 207.097C38.0397 206.975 33.9881 206.942 29.3437 206.934Z" fill="#525D7D"/>
<path d="M96.8653 226.745C94.9978 226.745 93.1222 226.745 91.2466 226.745H89.777C89.4786 226.741 89.1919 226.628 88.9707 226.428C88.7494 226.227 88.6088 225.953 88.5753 225.656C87.195 213.007 87.0732 200.073 86.9514 187.563C86.8621 178.482 86.7646 169.102 86.1963 159.924C86.1819 159.743 86.2086 159.561 86.2744 159.392C86.3402 159.223 86.4433 159.071 86.5761 158.947C86.7089 158.824 86.8678 158.732 87.0411 158.679C87.2144 158.625 87.3974 158.612 87.5766 158.639C89.8463 158.93 92.1332 159.066 94.4213 159.046C96.4187 159.046 98.481 158.973 100.438 158.899C102.005 158.834 103.572 158.778 105.139 158.753C105.462 158.759 105.771 158.883 106.008 159.103C106.124 159.216 106.216 159.351 106.279 159.501C106.341 159.65 106.373 159.81 106.373 159.973C106.373 184.189 106.852 205.544 107.729 225.257C107.742 225.578 107.629 225.891 107.413 226.129C107.197 226.366 106.896 226.509 106.576 226.525C103.734 226.68 100.738 226.745 96.8653 226.745ZM90.8812 224.306H91.2628C93.1303 224.306 95.0059 224.306 96.8653 224.306C100.154 224.306 102.792 224.257 105.245 224.144C104.433 205.073 103.986 184.457 103.937 161.208L100.527 161.322C98.5297 161.403 96.4674 161.476 94.4213 161.476C92.5236 161.487 90.6265 161.401 88.7377 161.216C89.2411 169.963 89.3223 178.873 89.4116 187.498C89.5009 199.594 89.6227 212.088 90.8812 224.274V224.306Z" fill="#525D7D"/>
<path d="M123.806 226.745H121.28C120.961 226.743 120.655 226.616 120.427 226.391C120.2 226.167 120.069 225.862 120.063 225.542C119.624 194.35 118.788 166.907 117.489 141.65C117.482 141.478 117.51 141.307 117.574 141.147C117.637 140.987 117.733 140.843 117.855 140.722C117.977 140.602 118.124 140.509 118.284 140.449C118.445 140.389 118.617 140.363 118.788 140.373C120.59 140.479 122.401 140.609 124.22 140.739C127.735 140.991 131.365 141.251 134.913 141.381C135.224 141.39 135.52 141.518 135.739 141.739C135.958 141.96 136.084 142.257 136.09 142.568C136.277 151.713 136.383 160.989 136.488 169.955C136.691 187.896 136.902 206.447 137.795 224.753C137.809 225.056 137.71 225.353 137.518 225.587C137.327 225.821 137.055 225.976 136.756 226.021C132.463 226.577 128.134 226.819 123.806 226.745ZM122.482 224.306C126.766 224.4 131.051 224.218 135.311 223.762C134.499 205.772 134.255 187.579 134.052 169.979C133.955 161.395 133.849 152.526 133.679 143.771C130.431 143.633 127.183 143.397 124.049 143.17L119.989 142.893C121.224 167.476 122.036 194.139 122.482 224.306Z" fill="#525D7D"/>
<path d="M150.348 226.745C150.037 226.746 149.738 226.627 149.512 226.414C149.285 226.201 149.149 225.909 149.13 225.599C147.985 206.634 147.628 187.351 147.287 168.695C147.076 157.127 146.857 145.161 146.475 133.407V133.301C146.468 133.14 146.493 132.978 146.551 132.827C146.608 132.676 146.695 132.539 146.808 132.423C147.034 132.188 147.343 132.05 147.669 132.041C150.551 131.992 153.442 132.041 156.34 132.041C157.964 132.041 159.523 132.041 161.115 132.041C163.445 132.041 165.361 132.041 167.147 131.952C167.309 131.946 167.471 131.973 167.623 132.03C167.775 132.087 167.914 132.174 168.032 132.285C168.266 132.515 168.4 132.827 168.406 133.155C168.444 137.089 168.482 141.021 168.52 144.95C168.763 170.638 169.015 197.204 170.225 223.42C170.24 223.722 170.141 224.019 169.949 224.252C169.757 224.485 169.484 224.638 169.185 224.68C163.226 225.558 156.836 226.404 150.429 226.704L150.348 226.745ZM148.927 134.48C149.309 145.86 149.52 157.461 149.739 168.671C150.072 186.888 150.421 205.715 151.509 224.249C157.022 223.932 162.527 223.217 167.748 222.469C166.579 196.57 166.335 170.362 166.124 145.015C166.092 141.503 166.057 137.981 166.019 134.447C164.557 134.447 162.982 134.504 161.147 134.504C159.523 134.504 157.948 134.504 156.348 134.504C153.84 134.472 151.379 134.447 148.927 134.48Z" fill="#525D7D"/>
<path d="M165.556 72.7961C161.577 72.7961 155.666 68.1706 155.666 61.7812C155.666 57.5215 158.175 52.4896 163.68 51.5141C164.013 51.4581 164.35 51.4309 164.687 51.4328C170.923 51.4328 172.961 59.6513 172.961 62.4803C172.961 66.0083 170.752 72.7961 165.556 72.7961ZM164.102 53.9203C159.986 54.6438 158.102 58.5051 158.102 61.7812C158.102 66.8212 162.974 70.3573 165.556 70.3573C169.047 70.3573 170.525 64.7239 170.525 62.4803C170.525 60.6593 169.063 53.8715 164.687 53.8715C164.491 53.871 164.296 53.8873 164.102 53.9203Z" fill="#525D7D"/>
<path d="M158.492 134.512C158.227 134.513 157.969 134.427 157.758 134.267C157.547 134.107 157.394 133.882 157.323 133.626C155.737 128.504 153.816 123.491 151.574 118.62C148.538 111.637 145.891 105.613 145.891 100.183C145.891 85.5994 158.248 73.5358 164.565 73.5358C172.782 73.5358 175.681 92.5904 175.681 97.4598C175.681 102.768 174.057 107.776 172.433 111.97C172.376 112.12 172.289 112.256 172.179 112.372C172.068 112.488 171.936 112.581 171.79 112.646C171.644 112.711 171.486 112.747 171.326 112.751C171.166 112.755 171.007 112.727 170.858 112.669C170.709 112.612 170.572 112.525 170.456 112.415C170.34 112.304 170.247 112.172 170.183 112.026C170.118 111.879 170.082 111.721 170.078 111.561C170.074 111.401 170.102 111.242 170.16 111.092C171.686 107.109 173.253 102.37 173.253 97.4598C173.039 93.1501 172.286 88.8844 171.012 84.7621C169.25 79.0718 166.952 75.9746 164.573 75.9746C160.002 75.9746 148.335 86.705 148.335 100.183C148.335 105.101 150.86 110.913 153.791 117.644C156.073 122.614 158.029 127.727 159.645 132.951C159.696 133.133 159.705 133.324 159.67 133.51C159.636 133.695 159.559 133.87 159.446 134.021C159.333 134.172 159.186 134.295 159.018 134.38C158.85 134.465 158.664 134.511 158.476 134.512H158.492Z" fill="#525D7D"/>
<path d="M162.673 134.504C162.514 134.505 162.356 134.475 162.208 134.414C162.06 134.354 161.926 134.265 161.813 134.152C161.7 134.04 161.61 133.906 161.548 133.758C161.487 133.611 161.456 133.453 161.456 133.293C161.456 129.318 161.18 125.164 160.92 121.229C160.66 117.295 160.368 113.011 160.368 108.938C160.368 99.9554 161.732 93.3139 164.801 87.3959C164.87 87.2461 164.968 87.1118 165.09 87.0012C165.213 86.8906 165.356 86.8059 165.512 86.7524C165.668 86.6989 165.833 86.6776 165.997 86.6898C166.162 86.702 166.322 86.7475 166.468 86.8234C166.614 86.8994 166.744 87.0043 166.848 87.1318C166.953 87.2592 167.03 87.4066 167.077 87.565C167.123 87.7234 167.136 87.8895 167.116 88.0533C167.096 88.217 167.043 88.3751 166.961 88.5177C164.086 94.0699 162.803 100.37 162.803 108.938C162.803 112.929 163.079 117.067 163.347 121.067C163.615 125.066 163.891 129.236 163.891 133.26C163.894 133.587 163.767 133.901 163.539 134.134C163.31 134.367 162.999 134.5 162.673 134.504Z" fill="#525D7D"/>
<path d="M153.701 83.5427C153.491 83.5431 153.283 83.4886 153.099 83.3846C152.916 83.2806 152.762 83.1306 152.654 82.9493C148.099 75.308 145.972 65.8132 145.972 53.0586C145.972 50.4736 146.061 47.6853 146.232 44.5312C146.252 44.2084 146.4 43.9069 146.642 43.6922C146.883 43.4776 147.2 43.3672 147.523 43.385C147.682 43.3933 147.839 43.4332 147.983 43.5024C148.127 43.5716 148.256 43.6687 148.363 43.7881C148.469 43.9076 148.551 44.0469 148.603 44.1982C148.655 44.3495 148.677 44.5096 148.667 44.6694C148.489 47.7747 148.408 50.5142 148.408 53.0586C148.408 65.3498 150.421 74.4544 154.749 81.6974C154.913 81.976 154.961 82.3081 154.882 82.6216C154.803 82.9352 154.603 83.2049 154.327 83.372C154.137 83.4829 153.921 83.5418 153.701 83.5427Z" fill="#525D7D"/>
<path d="M147.019 45.905C144.242 45.905 142.148 44.0191 142.148 41.5234C142.148 41.5234 142.391 37.402 144.486 36.9142C145.13 36.761 145.789 36.6846 146.451 36.6866C150.511 36.6866 153.474 39.5481 153.474 41.4747C153.482 45.1165 148.302 45.905 147.019 45.905ZM145.225 39.2473C144.865 39.9565 144.65 40.7302 144.591 41.5234C144.591 42.7997 145.809 43.4663 147.027 43.4663C147.839 43.4663 151.087 42.8485 151.087 41.4747C150.973 40.9707 149.309 39.1254 146.5 39.1254C146.072 39.1225 145.644 39.1634 145.225 39.2473Z" fill="#525D7D"/>
<path d="M125.632 44.7832C125.346 44.7837 125.068 44.6829 124.848 44.4985C124.628 44.3141 124.481 44.058 124.431 43.7752C122.693 33.8821 121.857 23.6801 121.045 13.8195C120.81 10.893 120.574 7.96652 120.306 5.04817C120.291 4.88578 120.309 4.72206 120.36 4.56695C120.41 4.41183 120.491 4.26856 120.598 4.14584C120.704 4.02025 120.834 3.91785 120.98 3.8451C121.127 3.77235 121.287 3.73082 121.451 3.72313C146.337 2.22737 162.738 0.756008 170.306 0.00813062C170.469 -0.00861604 170.633 0.00788978 170.789 0.0566489C170.946 0.105408 171.09 0.185406 171.215 0.291801C171.339 0.398197 171.441 0.528774 171.514 0.675634C171.586 0.822494 171.628 0.982581 171.637 1.1462C172.449 15.2258 173.675 27.8422 175.316 39.7188C175.338 39.8823 175.327 40.0486 175.284 40.2078C175.241 40.367 175.166 40.5159 175.064 40.6455C174.959 40.7739 174.829 40.8802 174.683 40.9583C174.537 41.0364 174.376 41.0848 174.211 41.1007C170.087 41.4584 161.748 42.1738 152.346 42.9135C152.024 42.936 151.707 42.8309 151.462 42.621C151.218 42.4111 151.065 42.1131 151.038 41.7917C151.025 41.6319 151.044 41.471 151.093 41.3185C151.142 41.1659 151.221 41.0246 151.325 40.9029C151.43 40.7811 151.557 40.6813 151.7 40.6092C151.843 40.5371 151.999 40.4942 152.159 40.4829C160.668 39.8082 168.3 39.166 172.734 38.7758C171.223 27.5739 170.095 15.6973 169.283 2.56067C161.366 3.3248 145.785 4.69049 122.848 6.08056C123.067 8.59246 123.27 11.1044 123.473 13.6162C124.285 23.0704 125.048 32.8334 126.647 42.2794C131.316 42.0112 136.943 41.6291 143.398 41.1495C143.721 41.1258 144.04 41.2315 144.285 41.4434C144.53 41.6553 144.681 41.956 144.705 42.2794C144.729 42.6028 144.623 42.9224 144.412 43.1679C144.2 43.4133 143.9 43.5645 143.577 43.5882C136.602 44.1085 130.585 44.5068 125.714 44.7832H125.632Z" fill="#525D7D"/>
<path d="M136.74 32.8334C136.459 32.8342 136.187 32.7386 135.968 32.5626C135.749 32.3865 135.598 32.1406 135.538 31.8661C135.043 29.1184 134.824 26.3627 134.613 23.737C134.452 20.5619 134.048 17.4038 133.403 14.291C133.353 14.1315 133.336 13.9634 133.354 13.7972C133.371 13.631 133.423 13.4702 133.505 13.3248C133.587 13.1793 133.698 13.0524 133.832 12.9518C133.965 12.8512 134.118 12.7791 134.28 12.74C134.442 12.7009 134.611 12.6956 134.775 12.7245C134.94 12.7534 135.096 12.8158 135.236 12.9079C135.375 13 135.494 13.1198 135.585 13.2598C135.676 13.3998 135.738 13.5571 135.766 13.7219C136.445 16.9355 136.873 20.1969 137.048 23.4768C137.26 26.0781 137.471 28.7689 137.95 31.4027C138.004 31.7204 137.932 32.0468 137.748 32.3115C137.564 32.5761 137.284 32.7578 136.967 32.8172C136.892 32.8313 136.816 32.8367 136.74 32.8334Z" fill="#525D7D"/>
<path d="M142.156 33.3781C141.894 33.3778 141.64 33.2941 141.43 33.1391C141.22 32.9841 141.064 32.766 140.986 32.5164C139.289 26.9317 139.078 21.2007 138.867 15.6566L138.77 13.2179C138.765 12.9058 138.879 12.6034 139.088 12.3724C139.298 12.1413 139.588 11.9989 139.898 11.9742C140.064 11.9583 140.232 11.9774 140.39 12.0303C140.548 12.0831 140.694 12.1686 140.817 12.2812C140.94 12.3938 141.038 12.531 141.105 12.6839C141.172 12.8369 141.206 13.0022 141.206 13.1691L141.303 15.6079C141.506 20.9975 141.717 26.5659 143.317 31.8661C143.41 32.1765 143.378 32.5115 143.226 32.7979C143.073 33.0842 142.814 33.2987 142.505 33.3943C142.388 33.4048 142.271 33.3993 142.156 33.3781Z" fill="#525D7D"/>
<path d="M129.164 21.1844C128.841 21.2006 128.525 21.0876 128.285 20.8704C128.046 20.6532 127.902 20.3494 127.886 20.026C127.87 19.7026 127.982 19.3861 128.199 19.146C128.416 18.9058 128.72 18.7619 129.043 18.7457C131.274 18.4806 133.491 18.1035 135.684 17.6158C138.88 16.8494 142.144 16.4082 145.428 16.2988C145.751 16.2988 146.061 16.4273 146.289 16.656C146.517 16.8847 146.646 17.1948 146.646 17.5182C146.646 17.8416 146.517 18.1518 146.289 18.3804C146.061 18.6091 145.751 18.7376 145.428 18.7376C142.316 18.8498 139.223 19.2746 136.196 20.0057C133.922 20.509 131.624 20.8969 129.311 21.1682L129.164 21.1844Z" fill="#525D7D"/>
<path d="M130.244 27.4194C129.967 27.4208 129.697 27.327 129.479 27.1537C129.262 26.9803 129.111 26.7378 129.05 26.4664C128.989 26.195 129.023 25.9109 129.146 25.6614C129.269 25.4119 129.473 25.2119 129.725 25.0945C133.24 23.4687 137.032 22.9891 140.662 22.5501C141.985 22.3957 143.349 22.2331 144.656 22.0136C144.816 21.9869 144.98 21.992 145.138 22.0286C145.296 22.0653 145.445 22.1327 145.577 22.227C145.709 22.3214 145.821 22.4409 145.907 22.5786C145.993 22.7163 146.051 22.8696 146.077 23.0297C146.104 23.1899 146.099 23.3537 146.062 23.5118C146.026 23.67 145.958 23.8194 145.864 23.9515C145.77 24.0836 145.651 24.1958 145.513 24.2817C145.375 24.3677 145.222 24.4256 145.062 24.4523C143.69 24.6799 142.294 24.8507 140.946 25.0051C137.333 25.4359 133.923 25.818 130.764 27.3382C130.598 27.4002 130.421 27.4279 130.244 27.4194Z" fill="#525D7D"/>
<path d="M152.622 31.7523H152.191H152.005C151.743 31.7407 151.492 31.6463 151.288 31.4827C151.083 31.319 150.936 31.0946 150.868 30.8418C150.633 29.7716 150.483 28.6842 150.421 27.5902C150.411 27.3012 150.504 27.0179 150.682 26.7904C150.86 26.5628 151.113 26.4056 151.396 26.3464C151.804 26.27 152.216 26.2157 152.63 26.1838H152.873C152.76 24.2247 152.516 20.0464 152.378 17.5995L151.72 17.949C151.523 18.0555 151.3 18.105 151.077 18.092C150.853 18.0791 150.637 18.0043 150.454 17.8759C150.062 17.5898 149.691 17.2775 149.341 16.941C149.122 16.7297 148.895 16.5183 148.651 16.3232C148.405 16.1276 148.243 15.8439 148.201 15.5318C148.158 15.2196 148.238 14.9031 148.424 14.6486C149.163 13.6325 149.983 12.6977 150.778 11.8035C151.306 11.2019 151.858 10.576 152.402 9.95002C152.578 9.72216 152.833 9.56848 153.117 9.51917C155.378 9.0605 157.672 8.78862 159.978 8.70626C160.291 8.6949 160.596 8.80545 160.829 9.01466C161.062 9.22386 161.205 9.51544 161.228 9.82808L161.407 12.0717C161.756 16.5427 162.056 20.4528 162.69 24.9482C162.797 24.9383 162.903 24.9193 163.006 24.8913C163.178 24.8384 163.36 24.8241 163.538 24.8494C163.716 24.8747 163.887 24.9389 164.038 25.0376C164.188 25.1356 164.314 25.2661 164.406 25.4195C164.499 25.5729 164.556 25.7452 164.573 25.9237C164.675 26.8251 164.824 27.7205 165.02 28.6063C165.071 28.7708 165.086 28.9443 165.065 29.1152C165.044 29.2862 164.987 29.4507 164.898 29.598C164.809 29.7427 164.691 29.8673 164.551 29.9639C164.411 30.0604 164.253 30.1269 164.086 30.159C160.79 30.7686 157.282 31.2645 153.028 31.7197C152.893 31.7408 152.758 31.7517 152.622 31.7523ZM152.963 28.6063C152.963 28.8339 153.019 29.0615 153.052 29.2729C156.576 28.8908 159.547 28.46 162.373 27.9966C162.373 27.8096 162.308 27.6308 162.284 27.452H161.991H161.707C161.398 27.478 161.09 27.3847 160.847 27.1913C160.604 26.998 160.444 26.719 160.4 26.4114C159.645 21.347 159.32 17.1199 158.939 12.2343L158.857 11.1694C157.223 11.2751 155.597 11.476 153.986 11.7709C153.539 12.3156 153.068 12.844 152.622 13.3968C152.175 13.9495 151.566 14.5917 151.079 15.1933L151.306 15.4046L152.93 14.543C153.223 14.3979 153.56 14.3717 153.872 14.4698C154.182 14.5743 154.438 14.7961 154.586 15.0876C154.692 15.3071 154.692 15.3071 155.398 27.1024C155.413 27.3783 155.333 27.6508 155.172 27.8752C155.011 28.0997 154.779 28.2629 154.513 28.338C154.009 28.4891 153.488 28.5818 152.963 28.6144V28.6063Z" fill="#525D7D"/>
</g>
<defs>
<clipPath id="clip0">
<rect width="199" height="269" fill="white"/>
</clipPath>
</defs>
</svg>
