<svg width="50" height="50" viewBox="0 0 50 50" fill="none" xmlns="http://www.w3.org/2000/svg">
<path d="M48.2109 10.3828L39.6172 1.78906C39.4682 1.64516 39.2696 1.56404 39.0625 1.5625H19.5312C18.9102 1.56435 18.3152 1.81188 17.876 2.25102C17.4369 2.69015 17.1894 3.28522 17.1875 3.90625V8.63281C12.9793 8.83006 9.0088 10.6406 6.10047 13.6884C3.19215 16.7363 1.5695 20.7872 1.5695 25C1.5695 29.2128 3.19215 33.2637 6.10047 36.3116C9.0088 39.3594 12.9793 41.1699 17.1875 41.3672V46.0938C17.1894 46.7148 17.4369 47.3098 17.876 47.749C18.3152 48.1881 18.9102 48.4356 19.5312 48.4375H46.0937C46.7148 48.4356 47.3098 48.1881 47.749 47.749C48.1881 47.3098 48.4356 46.7148 48.4375 46.0938V10.9375C48.4359 10.7304 48.3548 10.5318 48.2109 10.3828ZM39.8437 4.22656L45.7734 10.1562H40.625C40.4178 10.1562 40.2191 10.0739 40.0726 9.92743C39.9261 9.78091 39.8437 9.5822 39.8437 9.375V4.22656ZM3.12501 25C3.13009 21.2002 4.59042 17.5467 7.20587 14.7903C9.82133 12.0339 13.3932 10.384 17.1875 10.1797V24.6797L6.95313 34.9141C4.48947 32.1999 3.12476 28.6656 3.12501 25ZM8.05469 36.0156L18.2891 25.7812H32.7891C32.6468 28.5806 31.7132 31.2822 30.0968 33.5722C28.4805 35.8622 26.2476 37.6467 23.6575 38.7184C21.0675 39.7901 18.2266 40.105 15.4647 39.6266C12.7028 39.1482 10.1334 37.896 8.05469 36.0156ZM46.875 46.0938C46.875 46.3009 46.7927 46.4997 46.6462 46.6462C46.4997 46.7927 46.3009 46.875 46.0937 46.875H19.5312C19.324 46.875 19.1253 46.7927 18.9788 46.6462C18.8323 46.4997 18.75 46.3009 18.75 46.0938V41.3672C22.9567 41.164 26.9245 39.3518 29.8327 36.3055C32.7409 33.2591 34.3671 29.2116 34.375 25C34.375 24.7928 34.2927 24.5941 34.1462 24.4476C33.9997 24.3011 33.8009 24.2188 33.5937 24.2188H18.75V3.90625C18.75 3.69905 18.8323 3.50034 18.9788 3.35382C19.1253 3.20731 19.324 3.125 19.5312 3.125H38.2812V9.375C38.2831 9.99603 38.5306 10.5911 38.9698 11.0302C39.4089 11.4694 40.004 11.7169 40.625 11.7188H46.875V46.0938Z" fill="#525D7D"/>
<path d="M21 21.5V6.5C33.4 6.5 36.5 16.5 36.5 21.5H21Z" fill="#FFD15C"/>
<circle cx="38" cy="38" r="7" fill="#24B300"/>
<path d="M21.0938 5.46875C20.8865 5.46875 20.6878 5.55106 20.5413 5.69757C20.3948 5.84409 20.3125 6.0428 20.3125 6.25V21.875C20.3125 22.0822 20.3948 22.2809 20.5413 22.4274C20.6878 22.5739 20.8865 22.6562 21.0938 22.6562H36.7188C36.926 22.6562 37.1247 22.5739 37.2712 22.4274C37.4177 22.2809 37.5 22.0822 37.5 21.875C37.4952 17.5253 35.7652 13.355 32.6895 10.2793C29.6137 7.20354 25.4435 5.47351 21.0938 5.46875ZM21.875 21.0938V7.05469C25.5346 7.25119 28.9925 8.79338 31.5839 11.3848C34.1754 13.9763 35.7176 17.4341 35.9141 21.0938H21.875Z" fill="#525D7D"/>
<path d="M38.2813 31.25C36.8906 31.25 35.5312 31.6624 34.3749 32.435C33.2186 33.2076 32.3174 34.3057 31.7852 35.5905C31.2531 36.8753 31.1138 38.2891 31.3851 39.653C31.6564 41.0169 32.3261 42.2698 33.3094 43.2531C34.2928 44.2364 35.5456 44.9061 36.9095 45.1774C38.2735 45.4487 39.6872 45.3095 40.972 44.7773C42.2568 44.2451 43.3549 43.3439 44.1275 42.1876C44.9001 41.0313 45.3125 39.6719 45.3125 38.2813C45.3096 36.4173 44.5679 34.6306 43.2499 33.3126C41.9319 31.9946 40.1452 31.2529 38.2813 31.25ZM38.2813 43.75C37.1997 43.75 36.1423 43.4293 35.243 42.8284C34.3437 42.2274 33.6427 41.3733 33.2288 40.3741C32.8149 39.3748 32.7066 38.2752 32.9176 37.2144C33.1286 36.1535 33.6495 35.1791 34.4143 34.4143C35.1791 33.6494 36.1535 33.1286 37.2144 32.9176C38.2752 32.7066 39.3748 32.8149 40.3741 33.2288C41.3733 33.6427 42.2275 34.3436 42.8284 35.243C43.4293 36.1423 43.75 37.1996 43.75 38.2813C43.7484 39.7311 43.1717 41.1212 42.1464 42.1464C41.1212 43.1716 39.7312 43.7483 38.2813 43.75Z" fill="#525D7D"/>
<path d="M37.7798 38.7472L36.6789 37.5571L36 38.291L37.4404 39.848C37.5304 39.9453 37.6525 40 37.7798 40C37.9071 40 38.0292 39.9453 38.1193 39.848L41 36.7339L40.3211 36L37.7798 38.7472Z" fill="white"/>
<path d="M39.0625 14.8438H45.3125V16.4062H39.0625V14.8438Z" fill="#525D7D"/>
<path d="M39.0625 19.5312H45.3125V21.0938H39.0625V19.5312Z" fill="#525D7D"/>
<path d="M39.0625 24.2188H45.3125V25.7812H39.0625V24.2188Z" fill="#525D7D"/>
</svg>
