<svg width="60" height="60" viewBox="0 0 60 60" fill="none" xmlns="http://www.w3.org/2000/svg">
<g clip-path="url(#clip0)">
<path d="M34.5826 47.9608C34.3649 48.1456 34.1108 48.2868 33.8305 48.3756C33.2749 48.5518 32.6842 48.5009 32.167 48.2324L23.0344 43.492L21.4985 44.7954C20.5161 45.6291 19.0823 45.5596 18.3023 44.6405L18.0845 44.3839C16.2316 44.7719 14.2807 44.1134 13.052 42.6656C11.8234 41.2178 11.4911 39.1859 12.1752 37.4205L12.0669 37.2929C11.2869 36.3738 11.4515 34.9477 12.4339 34.114L20.1788 27.5414C24.91 23.5264 28.2874 18.0913 29.6895 12.2371L30.6544 8.20814C30.6549 8.20585 30.6554 8.20355 30.6559 8.20126L31.0467 6.57031C31.1677 6.06451 31.5605 5.67459 32.0716 5.55222C32.5482 5.4384 33.0145 5.58465 33.3188 5.94326L38.49 12.0368C40.7658 11.8922 43.3182 13.1573 45.2045 15.38C47.0908 17.6027 47.9239 20.3268 47.4109 22.5489L52.5821 28.6424C52.8864 29.001 52.9549 29.4849 52.765 29.9366C52.5611 30.421 52.1127 30.745 51.5938 30.7823L46.0671 31.179C40.3907 31.5866 34.7966 33.7971 30.2052 37.4296L31.758 38.1884C31.8583 38.2373 31.9342 38.3249 31.9686 38.4308C32.0029 38.537 31.9929 38.6523 31.9406 38.7508L31.2366 40.0749L35.3007 42.2419C36.3482 42.8005 36.7566 44.1126 36.2111 45.1673L35.1078 47.2997C34.9748 47.5563 34.7964 47.7794 34.5826 47.9608ZM23.7119 42.9173L32.5461 47.5027C32.8682 47.6699 33.2362 47.7014 33.5821 47.5917C33.9278 47.4819 34.2104 47.244 34.3774 46.9216L35.4808 44.7893C35.8208 44.1327 35.5665 43.3154 34.9139 42.9673L30.492 40.6095C30.4906 40.6088 30.4894 40.6082 30.4881 40.6074C30.4864 40.6064 30.4848 40.6057 30.4832 40.6048L27.9983 39.2798L23.7119 42.9173ZM50.0663 30.0677L51.535 29.9623C51.784 29.9447 51.9422 29.7727 52.0069 29.6183C52.0391 29.5413 52.0989 29.3439 51.9551 29.1745L32.6919 6.47532C32.5481 6.30588 32.3438 6.33261 32.2624 6.35206C32.0994 6.39092 31.9042 6.51904 31.8462 6.76164L31.5033 8.19364L50.0663 30.0677ZM32.755 34.6548C36.8039 32.1885 41.3789 30.6913 46.0083 30.3591L49.0496 30.1408L31.2659 9.18507L30.489 12.4287C29.4259 16.868 27.2595 21.0726 24.2467 24.6288L32.755 34.6548ZM28.6722 38.7078L30.511 39.6883L31.0148 38.7407L29.5039 38.0023C29.4757 38.026 29.4475 38.0499 29.4194 38.0738L28.6722 38.7078ZM12.966 34.741C12.3293 35.2813 12.2073 36.1875 12.6938 36.7608L18.9294 44.1086C19.4159 44.6819 20.3299 44.7089 20.9666 44.1686L28.8875 37.4467C29.8935 36.593 30.9514 35.8082 32.0516 35.0964L23.7006 25.2559C22.7751 26.2899 21.7767 27.2642 20.711 28.1686L12.9661 34.7411L12.966 34.741ZM39.1903 12.862L46.7107 21.7238C46.8785 19.8882 46.0911 17.6958 44.5774 15.9122C43.0637 14.1285 41.0289 12.9949 39.1903 12.862ZM12.7985 38.1549C12.4268 39.5311 12.7452 41.0333 13.679 42.1336C14.6127 43.2339 16.0433 43.7926 17.4614 43.6496L12.7985 38.1549ZM18.4502 41.5243C18.2772 41.6712 18.0176 41.6499 17.8707 41.4769L13.7765 36.6523C13.3692 36.1724 13.4284 35.4508 13.9082 35.0436L21.8871 28.2724C22.0601 28.1256 22.3197 28.1468 22.4666 28.3199C22.6134 28.4929 22.5922 28.7525 22.4191 28.8994L14.4402 35.6706C14.3062 35.7843 14.2895 35.9861 14.4034 36.1202L18.4977 40.9448C18.6447 41.118 18.6234 41.3773 18.4502 41.5243Z" fill="#C3E5FE"/>
</g>
<defs>
<clipPath id="clip0">
<rect width="42.1696" height="42.1696" fill="white" transform="translate(0 27.2855) rotate(-40.319)"/>
</clipPath>
</defs>
</svg>
