<svg width="50" height="50" viewBox="0 0 50 50" fill="none" xmlns="http://www.w3.org/2000/svg">
<g clip-path="url(#clip0)">
<rect x="7" y="16" width="36" height="25" fill="#24B300"/>
<rect x="12" y="-1" width="26" height="38" fill="white"/>
<path d="M3.37058 50H46.6312C48.4892 50 50.0008 48.4768 50.0008 46.6045V44.6306C50.0008 43.9103 49.4173 43.3244 48.7001 43.3244H46.1958C46.7946 42.6012 47.1537 41.6793 47.1537 40.6959V29.9393C47.1537 29.5347 46.8259 29.2069 46.4213 29.2069C46.0167 29.2069 45.6889 29.5347 45.6889 29.9393V40.6959C45.6889 41.9757 44.7484 43.096 43.4922 43.3244H6.50952C5.25338 43.096 4.31295 41.9757 4.31295 40.6959V15.1642C4.31295 13.6912 5.51129 12.4928 6.98432 12.4928H10.9394V14.0629H7.24897C6.50845 14.0629 5.90591 14.6654 5.90591 15.406V40.4159C5.90591 41.1565 6.50845 41.759 7.24897 41.759H42.7527C43.4932 41.759 44.0957 41.1565 44.0957 40.4159V15.406C44.0957 14.6654 43.4932 14.0629 42.7527 14.0629H39.0624V12.4928H43.0174C44.4905 12.4928 45.6888 13.6912 45.6888 15.1642V26.5214C45.6888 26.926 46.0166 27.2538 46.4212 27.2538C46.8258 27.2538 47.1536 26.926 47.1536 26.5214V15.1642C47.1536 12.8835 45.2981 11.0279 43.0174 11.0279H39.0624V2.01434C39.0624 0.903606 38.1587 0 37.048 0H26.7099C26.3053 0 25.9774 0.327829 25.9774 0.732416C25.9774 1.137 26.3053 1.46483 26.7099 1.46483H37.048C37.3511 1.46483 37.5976 1.71131 37.5976 2.01434V35.7631C37.5976 36.0538 37.361 36.2902 37.0703 36.2902H12.9315C12.6407 36.2902 12.4043 36.0537 12.4043 35.7631C12.4043 34.6995 12.4043 8.28382 12.4043 7.15043H16.0756C17.1863 7.15043 18.0899 6.24683 18.0899 5.13609V1.46483H23.292C23.6966 1.46483 24.0244 1.137 24.0244 0.732416C24.0244 0.327829 23.6966 0 23.292 0H17.3575C17.1607 0 16.9719 0.0822259 16.8395 0.214451L11.1539 5.90005C11.0242 6.02984 10.9395 6.21665 10.9395 6.41802V11.0279H6.98442C4.70377 11.0279 2.84822 12.8835 2.84822 15.1642V40.6959C2.84822 41.6793 3.2073 42.6012 3.80612 43.3244H1.30165C0.58437 43.3244 0.000976562 43.9103 0.000976562 44.6306V46.6045C0.000976562 48.4768 1.51249 50 3.37058 50ZM16.625 2.50057V5.13599C16.625 5.43902 16.3785 5.6855 16.0755 5.6855H13.44L16.625 2.50057ZM12.9315 37.7551H37.0703C38.1687 37.7551 39.0624 36.8615 39.0624 35.7631V15.5277H42.6309V40.2941H7.37084V15.5277H10.9395V35.7631C10.9395 36.8615 11.8331 37.7551 12.9315 37.7551ZM18.654 44.7893H31.3478V45.3812C31.3478 45.6256 31.1464 45.8322 30.9083 45.8322H19.0935C18.8553 45.8322 18.654 45.6256 18.654 45.3812V44.7893ZM1.46581 44.7893H17.1891V45.3812C17.1891 46.4375 18.0434 47.297 19.0935 47.297H30.9083C31.9583 47.297 32.8126 46.4375 32.8126 45.3812V44.7893H48.5359V46.6046C48.5359 47.6692 47.6815 48.5353 46.6312 48.5353H3.37058C2.32029 48.5353 1.46581 47.6693 1.46581 46.6046V44.7893Z" fill="#525D7D"/>
<path fill-rule="evenodd" clip-rule="evenodd" d="M25 24H23V25H20V27H17V31H20H22H23H25V25V24Z" fill="#FFD15C"/>
<path d="M20.8778 8.96175C17.6397 8.96175 15.0052 11.5962 15.0052 14.8343C15.0052 18.0724 17.6397 20.7068 20.8778 20.7068C24.0749 20.7068 26.6955 18.146 26.748 14.9314C26.8027 11.5782 24.0814 8.96175 20.8778 8.96175ZM22.7153 14.8342C22.7153 14.8495 22.7146 14.8647 22.714 14.88L22.7136 14.8925V14.893C22.7136 14.8934 22.7135 14.8939 22.7135 14.8943C22.6823 15.8736 21.878 16.6717 20.8777 16.6717C19.8644 16.6717 19.0401 15.8474 19.0401 14.8342C19.0401 13.8209 19.8644 12.9966 20.8777 12.9966C21.891 12.9966 22.7153 13.8209 22.7153 14.8342ZM20.8778 19.2418C18.4473 19.2418 16.4701 17.2646 16.4701 14.8342C16.4701 12.6533 18.0624 10.8372 20.1454 10.4873V11.6135C18.6757 11.9476 17.5754 13.2648 17.5754 14.8341C17.5754 16.655 19.0568 18.1365 20.8778 18.1365C21.4847 18.1365 22.0698 17.972 22.5794 17.6647L23.3762 18.4651C22.6463 18.9699 21.7813 19.2418 20.8778 19.2418ZM24.4281 17.4455L23.6482 16.6623L23.6363 16.6504C23.8389 16.3438 23.9881 16.0064 24.0782 15.6502H25.2089C25.0877 16.3009 24.8218 16.9123 24.4281 17.4455ZM24.1162 14.1853C23.8614 12.9118 22.8719 11.9005 21.6102 11.6136V10.4874C23.4827 10.802 24.9586 12.3012 25.2378 14.1853H24.1162Z" fill="#525D7D"/>
<path d="M28.989 15.6501H33.6765C34.081 15.6501 34.4089 15.3223 34.4089 14.9177C34.4089 14.5131 34.081 14.1852 33.6765 14.1852H28.989C28.5844 14.1852 28.2565 14.5131 28.2565 14.9177C28.2565 15.3223 28.5844 15.6501 28.989 15.6501Z" fill="#525D7D"/>
<path d="M28.989 18.6607H33.6765C34.081 18.6607 34.4089 18.3329 34.4089 17.9283C34.4089 17.5237 34.081 17.1959 33.6765 17.1959H28.989C28.5844 17.1959 28.2565 17.5237 28.2565 17.9283C28.2565 18.3329 28.5844 18.6607 28.989 18.6607Z" fill="#525D7D"/>
<path d="M28.989 12.6395H33.6765C34.081 12.6395 34.4089 12.3116 34.4089 11.907C34.4089 11.5025 34.081 11.1746 33.6765 11.1746H28.989C28.5844 11.1746 28.2565 11.5025 28.2565 11.907C28.2565 12.3116 28.5844 12.6395 28.989 12.6395Z" fill="#525D7D"/>
<path d="M28.989 28.0234H33.6765C34.081 28.0234 34.4089 27.6956 34.4089 27.291C34.4089 26.8864 34.081 26.5586 33.6765 26.5586H28.989C28.5844 26.5586 28.2565 26.8864 28.2565 27.291C28.2565 27.6956 28.5844 28.0234 28.989 28.0234Z" fill="#525D7D"/>
<path d="M28.989 31.034H33.6765C34.081 31.034 34.4089 30.7062 34.4089 30.3016C34.4089 29.897 34.081 29.5692 33.6765 29.5692H28.989C28.5844 29.5692 28.2565 29.897 28.2565 30.3016C28.2565 30.7062 28.5844 31.034 28.989 31.034Z" fill="#525D7D"/>
<path d="M28.989 25.0128H33.6765C34.081 25.0128 34.4089 24.685 34.4089 24.2804C34.4089 23.8758 34.081 23.548 33.6765 23.548H28.989C28.5844 23.548 28.2565 23.8758 28.2565 24.2804C28.2565 24.685 28.5844 25.0128 28.989 25.0128Z" fill="#525D7D"/>
<path d="M22.9619 22.5953C22.3088 22.5953 21.7773 23.1267 21.7773 23.78V24.474H20.0588C19.4055 24.474 18.8741 25.0054 18.8741 25.6587V26.285H17.1509C16.4976 26.285 15.9662 26.8163 15.9662 27.4696V30.8996C15.9662 31.499 16.4538 31.9866 17.0532 31.9866H25.063C25.6624 31.9866 26.15 31.499 26.15 30.8996V23.78C26.15 23.1268 25.6186 22.5953 24.9653 22.5953H22.9619ZM18.8741 30.5218H17.4311V27.7498H18.8741V30.5218ZM21.7773 30.5218H20.3389C20.3389 29.6305 20.3389 26.8476 20.3389 25.9389H21.7773V30.5218ZM24.6851 30.5218H23.2468C23.2468 25.7766 23.2421 24.2763 23.2421 24.0602H24.685V30.5218H24.6851Z" fill="#525D7D"/>
</g>
<defs>
<clipPath id="clip0">
<rect width="50" height="50" fill="white"/>
</clipPath>
</defs>
</svg>
