<svg width="95" height="105" viewBox="0 0 95 105" fill="none" xmlns="http://www.w3.org/2000/svg">
<g clip-path="url(#clip0)">
<path d="M61.8005 64.2324C61.658 62.9815 61.2925 61.7666 60.7217 60.6459C57.8843 55.4388 50.4056 57.3438 49.1777 62.7694C48.4778 65.8606 50.6229 68.68 53.1495 69.6275C55.7039 70.9686 58.9935 70.4047 60.6257 67.7809C61.414 66.7704 61.8293 65.5163 61.8005 64.2324Z" fill="#FFD15C"/>
<path d="M19.5634 20.6911C19.5331 20.6556 19.4978 20.6276 19.4674 20.5946C18.2395 17.8666 16.2334 15.3952 13.6815 13.9905C12.868 13.0456 12.0519 12.1007 11.2434 11.1508C9.26756 8.82662 5.39682 11.3057 6.23059 14.087C7.03002 16.7839 8.40436 19.2733 10.258 21.382C12.0468 23.414 14.6694 25.7001 17.4866 25.7407C20.1698 25.7763 21.1805 22.5428 19.5634 20.6911Z" fill="#FFD15C"/>
<path d="M25.981 15.7863C25.1472 14.2115 24.2856 12.6595 23.4165 11.1127C22.7747 8.4888 21.3548 6.345 19.4194 4.41204C16.6402 1.63832 11.6047 5.27057 13.8609 8.7301C14.773 10.117 15.6952 11.4886 16.625 12.8577C17.7325 15.337 19.3108 17.5752 21.2714 19.4465C23.7727 21.8037 27.598 18.8191 25.981 15.7863Z" fill="#FFD15C"/>
<path d="M70.7624 63.0386C70.679 62.4874 69.8503 62.5585 69.7214 63.0386C68.0488 69.216 64.0669 73.7067 58.6852 76.5897C55.906 76.8945 53.2404 77.2552 50.6001 75.7845C48.1064 74.3951 45.0012 71.5147 44.3493 68.6851C44.2558 68.2838 43.5913 68.36 43.6191 68.7842C44.0082 72.993 44.5136 76.3052 48.3211 78.8224C50.9185 80.5369 54.4987 81.4919 57.6417 80.8265C65.9643 79.7698 71.965 71.2886 70.7624 63.0386Z" fill="#C3E5FE"/>
<path d="M82.8294 58.7688C82.7258 58.2303 81.9223 58.276 81.7884 58.7688C79.1254 68.6572 78.7161 79.653 69.3702 85.4392C66.1665 86.7803 63.0865 88.1596 59.4482 88.4059C54.7066 88.7527 49.968 87.6929 45.8198 85.3579C37.2976 80.5318 33.5102 71.7636 31.5041 62.5179C31.3828 61.9616 30.4935 62.081 30.5086 62.6551C30.976 73.628 34.3314 83.4833 44.1522 89.4626C52.6997 94.662 66.7122 95.7263 74.4714 88.4085C74.7225 88.1717 74.9109 87.8758 75.0197 87.5474C83.2589 81.2608 84.7294 68.6013 82.8294 58.7688Z" fill="#C3E5FE"/>
<path d="M56.2723 105C47.2701 105 37.9343 100.88 30.6603 93.6943C22.8733 86.0031 18.5831 75.9141 18.5831 65.2967C18.5831 46.6198 30.1777 30.4195 46.7749 25.9007C50.1041 24.9943 53.5382 24.5356 56.9874 24.5367C79.3705 24.5367 95.0025 40.5187 95.0025 63.3993C95.0025 86.3434 77.6271 105 56.2723 105ZM56.9874 27.1504C53.7671 27.1487 50.5607 27.5758 47.452 28.4205C31.9791 32.6318 21.1754 47.8009 21.1754 65.3043C21.1754 82.8077 36.1834 102.404 56.2723 102.404C76.1996 102.404 92.4026 84.9159 92.4026 63.4222C92.4026 52.5 88.825 43.2593 82.0562 36.7035C75.7145 30.5414 66.8082 27.1504 56.9874 27.1504Z" fill="#525D7D"/>
<path d="M56.2546 90.4761C48.5839 90.4761 41.565 86.7854 36.4891 80.0797C32.3379 74.5907 29.7557 67.3618 29.7557 61.2149C29.7557 48.1794 41.2113 36.7416 54.2637 36.7416C55.074 36.7424 55.8836 36.7865 56.6892 36.8737C62.8187 37.5341 68.2913 38.3698 73.1879 41.9538C79.2517 46.3912 82.8824 53.8564 82.8824 61.9261C82.8824 69.757 79.9415 77.0495 74.6003 82.4674C69.585 87.5576 62.8945 90.4761 56.2546 90.4761ZM54.2788 39.3477C42.6009 39.3477 32.3581 49.5663 32.3581 61.2149C32.3581 70.7832 40.3472 87.8853 56.2647 87.8853C70.6461 87.8853 80.3053 74.4688 80.3053 61.9362C80.3053 54.6971 77.0814 48.0194 71.6795 44.0696C67.2933 40.8616 62.3867 40.1173 56.429 39.4747C55.715 39.3943 54.9973 39.3519 54.2788 39.3477Z" fill="#525D7D"/>
<path d="M56.3001 77.8115C47.2802 77.8115 42.2902 68.7004 42.2902 62.4011C42.2902 55.4795 48.3692 49.4088 55.2971 49.4088C55.7292 49.4088 56.161 49.4317 56.5907 49.4774C59.7767 49.8228 62.6242 50.2597 65.2241 52.1596C68.4531 54.5193 70.3783 58.4818 70.3783 62.7592C70.3657 70.0288 64.7087 77.8115 56.3001 77.8115ZM55.2895 52.0123C49.731 52.0123 44.8723 56.8689 44.8723 62.4011C44.8723 66.9985 48.6875 75.2054 56.2926 75.2054C61.8511 75.2054 67.781 70.2041 67.781 62.7592C67.781 59.3124 66.2524 56.1373 63.693 54.2653C61.6085 52.7413 59.2158 52.3806 56.3077 52.0682C55.9695 52.0319 55.6296 52.0132 55.2895 52.0123Z" fill="#525D7D"/>
<path d="M57.2223 67.0011C57.0409 67.0017 56.8613 66.9638 56.6954 66.8898C56.5295 66.8159 56.3811 66.7075 56.2597 66.5718C38.2198 46.4217 24.4019 28.8675 12.7669 11.3286C12.6653 11.1865 12.5931 11.0253 12.5548 10.8546C12.5165 10.6839 12.5128 10.5072 12.5438 10.3351C12.5749 10.1629 12.6402 9.9988 12.7357 9.85253C12.8312 9.70626 12.9551 9.58084 13.0999 9.48373C13.2447 9.38663 13.4075 9.31984 13.5785 9.28735C13.7495 9.25486 13.9253 9.25734 14.0954 9.29462C14.2654 9.33191 14.4263 9.40325 14.5683 9.50438C14.7103 9.60552 14.8307 9.73438 14.9221 9.88327C26.4863 27.3155 40.231 44.7758 58.1825 64.8294C58.3501 65.0161 58.4602 65.2477 58.4995 65.496C58.5389 65.7444 58.5058 65.9989 58.4042 66.2288C58.3025 66.4586 58.1368 66.6539 57.9271 66.791C57.7173 66.928 57.4725 67.001 57.2223 67.0011Z" fill="#525D7D"/>
<path d="M15.056 28.136C14.2681 28.1366 13.4809 28.0891 12.6987 27.9937C12.5256 27.9731 12.3585 27.9175 12.2074 27.8301C12.0563 27.7428 11.9243 27.6257 11.8194 27.4857C8.61318 23.1473 5.58379 18.6159 2.65546 14.2344C1.84358 13.0202 1.03339 11.8112 0.224878 10.6072C0.0832043 10.3967 0.00587522 10.1491 0.00241056 9.89491C-0.0010541 9.64076 0.0694983 9.39113 0.205379 9.17677C0.341261 8.96242 0.536535 8.7927 0.767157 8.68851C0.997779 8.58432 1.25368 8.55022 1.50334 8.59041C5.17195 9.19239 8.84562 9.2686 12.7341 9.35242L13.919 9.37782C14.0934 9.37508 14.2665 9.40774 14.428 9.47383C14.5894 9.53992 14.736 9.63809 14.8589 9.76247C14.9818 9.88684 15.0784 10.0348 15.143 10.1976C15.2077 10.3604 15.239 10.5347 15.2351 10.7099C15.2311 10.8852 15.1921 11.0578 15.1203 11.2175C15.0484 11.3773 14.9453 11.5208 14.817 11.6395C14.6887 11.7582 14.5379 11.8496 14.3736 11.9084C14.2093 11.9671 14.035 11.9919 13.8609 11.9814L12.681 11.956C9.82089 11.895 6.88751 11.834 3.97435 11.5419L4.8056 12.784C7.61265 16.9852 10.5157 21.3261 13.5603 25.4842C14.0504 25.5274 14.5507 25.5502 15.056 25.5502C18.0576 25.5502 20.9834 24.8034 23.8132 24.0795C24.1418 24.0072 24.4855 24.0662 24.7716 24.244C25.0578 24.4218 25.264 24.7044 25.3467 25.0322C25.4293 25.36 25.382 25.7073 25.2146 26.0007C25.0473 26.294 24.7731 26.5105 24.4499 26.6043C21.6075 27.313 18.3835 28.136 15.056 28.136Z" fill="#525D7D"/>
<path d="M23.6616 26.7466C23.4534 26.7465 23.2483 26.696 23.0636 26.5993C22.8789 26.5026 22.7201 26.3626 22.6006 26.1912C22.4812 26.0198 22.4045 25.8219 22.3772 25.6144C22.3499 25.4069 22.3727 25.1958 22.4438 24.999C23.7905 21.2855 25.4428 17.6837 27.1761 14.0312C23.5656 10.8206 19.849 7.51851 16.4406 3.91166C15.8393 6.19769 15.3137 8.51166 14.8514 10.912C14.7843 11.2512 14.5861 11.5497 14.3001 11.7419C14.0141 11.9341 13.664 12.0043 13.3266 11.9369C12.9892 11.8695 12.6922 11.6702 12.501 11.3827C12.3098 11.0952 12.2401 10.7432 12.3071 10.404C12.9387 7.14258 13.6765 4.0539 14.581 0.932193C14.6445 0.708099 14.7667 0.505269 14.9349 0.344912C15.103 0.184555 15.311 0.0725623 15.5369 0.0206425C15.7628 -0.0312773 15.9985 -0.0212171 16.2193 0.0497729C16.44 0.120763 16.6378 0.250074 16.7918 0.424186C20.5286 4.6381 24.8137 8.438 28.9599 12.1084L29.637 12.7103C29.8483 12.898 29.9929 13.1498 30.049 13.4276C30.1051 13.7054 30.0695 13.994 29.9478 14.2496C28.0907 18.1486 26.3069 21.9713 24.8946 25.8728C24.8058 26.1298 24.6391 26.3523 24.4179 26.5091C24.1967 26.6658 23.9322 26.7489 23.6616 26.7466Z" fill="#525D7D"/>
</g>
<defs>
<clipPath id="clip0">
<rect width="95" height="105" fill="white"/>
</clipPath>
</defs>
</svg>
